<?xml version="1.0" encoding="utf-8"?>
<!-- Generator: Adobe Illustrator 23.0.0, SVG Export Plug-In . SVG Version: 6.00 Build 0)  -->
<svg version="1.0" id="Layer_1" xmlns="http://www.w3.org/2000/svg" xmlns:xlink="http://www.w3.org/1999/xlink" x="0px" y="0px"
	 viewBox="0 0 820 665" style="enable-background:new 0 0 820 665;" xml:space="preserve">
<style type="text/css">
	.st0{fill:#FFFFFF;}
</style>
<g>
	<path class="st0" d="M308.8,108.8c1.2-0.8,2.7-0.9,3.9-0.2l-0.3,0.3C311.2,109.3,310,109.2,308.8,108.8z"/>
</g>
<g>
	<path class="st0" d="M312.8,108.6c5.9-0.1,11.9-0.1,17.8,0h-0.5c-5.9,0.1-11.8,0-17.7,0.3L312.8,108.6z"/>
</g>
<g>
	<path class="st0" d="M330.6,108.7c2.2,0,4.4,0.1,6.6,0.2c-2.4-0.1-4.7-0.2-7.1-0.2H330.6z"/>
</g>
<g>
	<path class="st0" d="M299.8,109.7c1.2-0.1,3.7-0.4,5-0.5C303.5,109.3,301,109.6,299.8,109.7z"/>
</g>
<g>
	<path class="st0" d="M304.8,109.2c1.4-0.1,2.7-0.3,4.1-0.4c1.2,0.4,2.4,0.5,3.6,0.2c5.9-0.3,11.8-0.2,17.7-0.3
		c2.4,0,4.7,0.1,7.1,0.2c1.3,0.1,2.7,0.1,4,0.2c1.2,0.2,3.7,0.6,5,0.8c1.3-0.1,3.9-0.2,5.2-0.3c0.1,1,0.7,1.4,1.8,1.2
		c1.1-0.1,2.3-0.3,3.4-0.5c0.2,1,0.8,1.4,1.8,1.2c0.7-0.1,2-0.3,2.6-0.4c0.2,1,0.8,1.4,1.8,1.1c1.1-0.2,2.2-0.4,3.3-0.5
		c0.3,1,1,1.3,2.1,1.1c17.1,3.3,34,8.1,50,15.1c14.5,7.3,29.9,14.1,41.5,25.9l-0.6-0.4c-19.3-14-40.7-25.5-63.5-32.5
		c-19.6-6.1-40-9.4-60.4-10.5c-8.2-0.5-16.5-0.5-24.8-0.1c-32.7,1.6-65.3,9.5-94.4,24.6c-12.5,6.1-23.7,14.5-34.6,23.1
		c0,27.1-0.3,54.1,0,81.2c-0.6,8,5.6,14.7,12.8,17.2c-0.4,0.2-1.1,0.6-1.5,0.8c-0.2,0.1-0.5,0.3-0.7,0.4c-6.2-4-12.5-9.5-12.4-17.5
		c0.3-27.5,0.4-54.9,0.1-82.4c25.4-22.5,57.4-36.5,90.3-43.5c1.1,0.3,1.8,0,2.2-1c0.4,0.1,1.2,0.3,1.7,0.4c1,0.3,1.6,0,1.9-1
		c0.4,0.1,1.3,0.3,1.8,0.3c1,0.3,1.6-0.1,1.8-1.1c0.7,0.1,2,0.3,2.6,0.4c1,0.2,1.6-0.2,1.8-1.2c0.6,0.1,1.7,0.2,2.3,0.3
		c1.1,0.4,2.4,0.1,3.2-0.8c0.9,0,1.8,0,2.7,0c1.1,0.4,2.4,0.2,3.2-0.7c1.2,0,3.6-0.1,4.8-0.1C301,109.6,303.5,109.3,304.8,109.2z"/>
</g>
<g>
	<path class="st0" d="M341.2,109c1.2,0.2,3.7,0.6,5,0.8C344.9,109.6,342.4,109.2,341.2,109z"/>
</g>
<g>
	<path class="st0" d="M291.8,110.5c0.8-0.9,2.1-1.1,3.2-0.7C294.2,110.7,292.9,110.9,291.8,110.5z"/>
</g>
<g>
	<path class="st0" d="M310.2,110.2c8.2-0.4,16.5-0.4,24.8,0.1C326.7,110.3,318.5,110.2,310.2,110.2z"/>
</g>
<g>
	<path class="st0" d="M285.9,111.3c0.8-0.9,2-1.2,3.2-0.8C288.3,111.4,287,111.7,285.9,111.3z"/>
</g>
<g>
	<g>
		<path class="st0" d="M215.8,134.8c29.1-15.2,61.7-23.1,94.4-24.6c8.3,0,16.5,0.1,24.8,0.1c20.5,1.1,40.8,4.4,60.4,10.5
			c22.9,7,44.2,18.5,63.5,32.5c2,1.8,3.8,3.7,5.9,5.3c8.6,0.8,17.3,0.7,25.9,0.7c40.9-0.2,81.9,0.1,122.8-0.2
			c7.5,0.6,14.1,7.3,14.8,14.8c-0.2,22.3-0.2,44.6,0,66.9c-0.6,8.2-7.9,15.7-16.4,15.2c-37.8,0.7-75.6-0.4-113.3,0.5
			c-70.1-0.6-140.2-0.3-210.2-0.1c-1-0.5-2.2-0.7-3.1,0.1c-1.8,1.1-3.5,2.1-5.3,3.2c-3.9,2.3-6.9,5.8-9.5,9.4l-0.2,0.2
			c-0.7-1.1-2-0.5-2.6,0.3c-1,0.7-2.1,1.3-3.1,1.9c-0.4,0-1.3,0-1.7,0c-6.6-0.3-13.2-0.2-19.8-0.5c-9.4-1.4-13.8-12.6-23.2-14.3
			c-8.6-1-17.2-0.7-25.8-0.3c-7.2-2.6-13.4-9.2-12.8-17.2c-0.3-27.1,0-54.1,0-81.2C192.1,149.3,203.3,141,215.8,134.8z M356.2,207.3
			c0.5,10.6-1.5,21.6,1.7,31.9c1.5-1,3.5-1.6,4.4-3.3v0.5c0.5-7,0.7-14,1.1-21.1c4.3-2.2,9.4-3.7,14.1-2c5.5,2.2,10.1,6.9,16.2,7.4
			c2.5,0,5.1,0,7.7,0c4.4-0.2,8.1-3.1,11.7-5.2l0-0.8l0.8-0.1c0-10,0.1-20-0.6-29.9l0,0.5c-0.6-0.9-1.4-2.5-2.6-2.3
			c0.5-1.5-2.4-1.2-1.7,0.2c-3.1,0.9-5.8,3.1-9,3.7c-2.1-0.1-4.2-0.1-6.3-0.1c-5.6-1.4-9.6-6.8-15.5-7.5c-0.4-1.3-1.1-1.4-2-0.5
			c-2.4-0.6-5.3-0.8-7.5,0.2c-1-0.9-1.7-0.7-2,0.6c-3.5,0.3-6-2.2-8.8-3.9C354.6,185.8,356.8,196.8,356.2,207.3z M243.6,226.2l0-0.5
			c2.3,0.1,4.6,0.1,7,0.2c-0.1-5.3,0-10.6-0.4-16c1.2-0.3,1.4-0.9,0.7-1.9c2.3-2.4,6.9-4.1,8.7-0.2c-0.3,6.1-0.1,12.2,0.3,18.3
			l0-0.5c2,0.1,4.1,0.1,6.1,0.1l0.9,0c-0.1-6.2-0.3-12.5-0.7-18.7c-0.1-0.5-0.4-1.4-0.5-1.9c1.2-0.7,0-2.9-1.2-2.2
			c-2.4-3.9-8.5-4.1-11.5-0.8c-0.5-0.9-2.1-0.5-2.4,0.4c-0.2-3.8-0.3-7.7-0.3-11.5c-2.3-0.1-4.5-0.2-6.8-0.2
			C242.8,202.6,242.9,214.4,243.6,226.2z M474.2,226.1l0-0.5c2.2,0.1,4.3,0.2,6.5,0.3c0.7-11.7,0.6-23.5-0.1-35.3l0,0.5
			c-2.2-0.1-4.3-0.2-6.5-0.3C473.4,202.6,473.5,214.4,474.2,226.1z M487.3,197.1c2.2,0,4.5,0,6.8,0c0.1-2.1,0.1-4.2,0.1-6.3
			c-2.3,0-4.5,0-6.8,0C487.2,193,487.2,195,487.3,197.1z M526.9,191c0,11.6,0,23.2,0,34.8c2.2-0.1,4.4-0.1,6.6-0.2l0,0.5
			c0.1-2.2,0.4-6.6,0.6-8.8c0.8-0.9,1.7-1.7,2.6-2.4c2,3.5,3.7,7.1,6.1,10.4c1.8,0.2,5.4,0.6,7.2,0.8c-2.6-4.8-4.9-9.8-8.1-14.2
			c0.8-0.9,0.7-1.7-0.2-2.5c1-1.2,2-2.4,3-3.5c2.2-1.4,4.2-3.1,5.5-5.5l-0.5,0.5c-2,0-6.1,0-8.2,0c-0.3,0.3-0.8,0.9-1.1,1.2
			c-1.3,1.2-2.6,2.5-3.7,3.8c-0.8,0.7-1.5,1.5-2.2,2.3c0.4-5.8-0.3-11.7-0.6-17.5l0,0.5C531.5,191.1,529.2,191,526.9,191z
			 M596.2,201.7c-0.3,0-1-0.1-1.3-0.2c-3-1.8-7-2.2-10.1-0.5c-1.2-0.5-1.8-0.1-1.7,1.2c-0.7,0.3-1.2,0.7-1.5,1.5
			c-1.3-0.1-1.7,0.4-1.2,1.7c-0.7,0.8-1,1.9-1,3c-1.2,0.1-1.4,0.7-0.6,1.7c0.1,2.2,0.3,6.5,0.4,8.7v-0.5c0.2,1.5,1.2,2.7,2.2,3.7
			c-1.1,1.4,1.2,3.7,2.6,2.6c2.1,2.5,6.7,3.2,9.1,0.8c1.2,0.5,1.8,0.1,1.7-1.2c0.4-0.1,1.1-0.3,1.5-0.4c-0.6,1-0.4,1.6,0.7,1.8
			c2.1,0.2,4.2,0.3,6.4,0.5c0.7-11.8,0.6-23.5-0.1-35.3l0,0.5c-2.2-0.1-4.4-0.3-6.5-0.4C596.4,194.5,596.2,198.1,596.2,201.7z
			 M276.6,201.6c-1.4,1.1-2.7,2.3-3.9,3.6c-0.4,1-0.7,2-0.7,3.1c-1.3,0.4-1.4,1.1-0.5,2.1c-0.1,0.5-0.2,1.4-0.3,1.9
			c-1.6-0.3-1.7,3-0.1,2.8c0,3.1,0.7,7.1,3.8,8.5c-0.2,1.3,0.4,1.7,1.6,1.3c3.3,3.3,9.7,2.7,13.1-0.1c1.4,1.2,3.7-1.2,2.4-2.6
			c0.8-0.9,1.5-1.8,2.2-2.8l0.6,0.2c-1.7-1-3.5-1.6-5.5-1.8c-1.4-0.5-2,1-2.8,1.9c-1-0.9-3.1,0.5-2.6,1.8c-3.6,0.3-5.4-2.8-6.8-5.6
			c5.7-0.3,11.4-0.5,17.1-0.8c1.6,0.1,1.2-3.1-0.3-2.7c-0.1-2.7-0.7-5.7-2.7-7.7c1.1-1.4-1.1-3.7-2.6-2.6
			C285.6,199.1,280.2,199.5,276.6,201.6z M308.3,202.2c-1.1-0.3-2.3-0.7-3.4-1.1c-1.9-0.2-3.7-0.3-5.6-0.5c0,8.4,0,16.8,0,25.3
			c2.3,0,4.5-0.1,6.8-0.1l0,0.5c0.3-5.4,0.5-10.7,0.5-16.1c0.1-0.5,0.2-1.6,0.2-2.1c1,0.7,2.6-0.9,1.8-1.9c1.1-0.2,2.2-0.5,3.4-0.6
			c-0.5,1.4,1.7,2.5,2.8,1.7c0,0.5,0.1,1.4,0.1,1.9c-0.1,5.7,0,11.4,0.3,17.1l0-0.5c2.2,0.1,4.4,0.2,6.6,0.3
			c0.5-6.8,0.4-13.6-0.2-20.3c-0.1-1.1-0.8-1.9-1.4-2.6c1.1-0.9-0.2-3.1-1.5-2.4C315.2,200.6,311.2,199.5,308.3,202.2z M454.6,200.7
			c-1.1-0.1-2.1,0.6-2.9,1.3c-1.4-1.2-3.7,1-2.6,2.5c-3.5,4.7-4.5,13,0,17.5c-1.1,1.4,1,3.8,2.5,2.6c2.6,3.1,7.2,1.9,10.7,1.6
			c3.8-0.8,5.7-4.6,7.8-7.5l0.4,0.2c-0.5-0.9-0.9-1.8-1.3-2.7c-1.3,0.1-2.5,0.2-3.8,0.3c-0.5-0.2-1.4-0.6-1.8-0.8
			c-0.3,1.3-0.6,2.6-0.8,3.9c-1.1-0.4-1.6,0-1.4,1.2c-1.8-0.1-3.6-0.2-5.4-0.3c0.7-1.1-1.2-2.6-2.2-1.8l-0.5-0.7
			c0.9-1,0.7-1.6-0.4-2.1c0.6-3,0.4-6.2,1.9-8.9c1.3-1.4,3.5-1.5,5.3-1.8c-0.5,1.1,1.5,2.5,2.4,1.8c0.2,0.5,0.6,1.6,0.8,2.1
			c0.3-0.2,0.9-0.5,1.2-0.6c0.9,0.8,1.8,0.8,2.6-0.2c0.4,1.1,2.7,1,2.6-0.3l-0.3-0.3c-0.6-1.3-1.2-2.7-2.1-3.9
			c1.2-1.1-0.6-3.2-1.8-2.1c-0.9-0.5-2-0.9-3.1-0.9c-0.4-1.3-1.1-1.4-2-0.5c-1.2-0.5-2.6-0.4-3.8,0
			C455.7,199.3,455,199.4,454.6,200.7z M504.9,201.5c-1.3,1.2-2.5,2.5-3.6,3.9c-1,1.4-1.7,3.1-2,4.8c-0.2,2.1-0.2,4.1-0.2,6.2
			c0.7,8.5,12.3,14,18.8,8.2c1.4,1.1,3.7-1.2,2.6-2.6c1.2-1.1,1.8-2.6,2.5-4.1l0.3-0.2c0.2-1.5-2.2-2-2.9-0.9
			c-0.7-1-1.6-1.2-2.5-0.5l-0.3-0.3c-2,2.5-3.9,6.7-8.1,5.1c-2-1.5-3-3.9-3.8-6.2c1.3-0.9,1.5-3.3,0.2-4.3c1-2.1,1.9-5,4.6-5.3
			c3-0.4,5.1,2.9,8,2.7c0.4,1.3,3.1,1.4,3.1-0.1l1.1,0.1c-0.5-0.9-0.9-1.8-1.5-2.7c0.7-1.2,0.4-1.8-0.9-1.8c-0.9-3.1-4.9-3-7.4-3.7
			C510.2,200.1,507.1,199.9,504.9,201.5z M557.4,201.6c-1.4,1.1-2.7,2.3-3.9,3.6c-0.4,1-0.7,2-0.7,3.1c-1.3,0.4-1.4,1.1-0.5,2.1
			c-0.1,0.5-0.2,1.4-0.3,1.9c-1.6-0.3-1.7,3-0.1,2.8c0,3.1,0.7,7.1,3.8,8.5c-0.2,1.3,0.4,1.7,1.6,1.3c3.3,3.3,9.7,2.7,13.1-0.1
			c1.4,1.2,3.7-1.2,2.4-2.6c0.8-0.9,1.5-1.8,2.2-2.8l0.6,0.2c-1.7-1-3.5-1.6-5.5-1.8c-1.4-0.5-2,1-2.8,1.9c-1-0.9-3.1,0.5-2.6,1.8
			c-3.6,0.3-5.4-2.8-6.8-5.6c5.7-0.3,11.4-0.5,17.1-0.8c1.6,0.1,1.2-3.1-0.3-2.7c-0.1-2.7-0.7-5.7-2.7-7.7c1.1-1.4-1.1-3.7-2.6-2.6
			C566.3,199.1,561,199.5,557.4,201.6z M203.7,200.7c2,8.5,5,16.7,7.6,25.1c2.4,0,4.8,0,7.3,0.1c0-1.1,0-2.1,0-3.2
			c1.3-0.3,1.5-1,0.7-2c1.7-2.9,1.8-6.3,2.7-9.4c0.5,0.9,1,1.8,1.6,2.7c-0.9,1-0.7,1.7,0.6,2c0.1,3.3,1.3,6.5,1.9,9.8
			c2.3,0.1,4.7,0.1,7,0.1c2.9-8.3,5.4-16.8,8.1-25.2c-2.2,0-4.5,0-6.7,0.1c-1.4,4.7-2.8,9.5-3.8,14.3c-0.4,0.1-1.2,0.2-1.6,0.3
			c-0.9-4.3-1.9-8.6-3.5-12.6c1.1-0.5,1.2-1.2,0.3-1.9c-2.2-0.1-4.5-0.1-6.8-0.1c-1.3,5.3-2.7,10.5-4.3,15.7
			c-1.7-5.2-3.3-10.5-5-15.7C207.8,200.7,205.8,200.7,203.7,200.7z M487.5,226.2l0-0.5c2.1,0.1,4.2,0.3,6.4,0.4
			c0.9-8.5,0.5-17.2,0-25.7l0,0.5c-2.2-0.1-4.3-0.3-6.5-0.4C486.7,209,486.9,217.6,487.5,226.2z"/>
	</g>
</g>
<g>
	<path class="st0" d="M281.8,112.2c0.2-1,0.8-1.4,1.8-1.2C283.4,112.1,282.8,112.4,281.8,112.2z"/>
</g>
<g>
	<path class="st0" d="M277.3,112.9c0.2-1,0.8-1.4,1.8-1.1C278.9,112.8,278.3,113.2,277.3,112.9z"/>
</g>
<g>
	<path class="st0" d="M273.6,113.6c0.3-1,0.9-1.3,1.9-1C275.3,113.6,274.6,113.9,273.6,113.6z"/>
</g>
<g>
	<path class="st0" d="M458.9,153.3l0.6,0.4c1.8,1.2,3.5,2.3,5.4,3.3c7.3,0.9,14.7,0.9,22.1,0.9c42.4-0.2,84.8,0,127.2-0.2
		c8,1,14.8,8.1,15.6,16.1c-0.3,22.5-0.2,45.1,0,67.6c-0.4,8.7-8.5,15.8-16.9,16.3c-36.6-0.4-73.3-0.3-109.9,0
		c-0.2-0.1-0.7-0.2-1-0.3c-1.2-0.4-2.3-0.8-3.5-1.1c37.8-0.8,75.6,0.2,113.3-0.5c8.5,0.6,15.8-7,16.4-15.2c1-22.3,1-44.6,0-66.9
		c-0.6-7.5-7.3-14.1-14.8-14.8c-9.9-0.7-19.8-0.6-29.7-0.6c-39.7,0.2-79.4-0.1-119,0.2C462.7,157,460.9,155.1,458.9,153.3z"/>
</g>
<g>
	<path class="st0" d="M464.9,157c44.8,0.3,89.6,0,134.4,0.1c5,0.1,10,0.2,14.9,0.7c-42.4,0.2-84.8,0-127.2,0.2
		C479.6,157.9,472.2,157.8,464.9,157z"/>
</g>
<g>
	<path class="st0" d="M178.9,198.4c0.1-13.6-0.5-27.2,0.6-40.8c0.3,27.5,0.2,54.9-0.1,82.4C178.5,226.2,179,212.3,178.9,198.4z"/>
</g>
<g>
	<path class="st0" d="M464.8,158.7c39.7-0.3,79.4,0,119-0.2c9.9,0,19.8-0.1,29.7,0.6c-40.9,0.4-81.9,0-122.8,0.2
		C482.1,159.3,473.4,159.4,464.8,158.7z"/>
</g>
<g>
	<path class="st0" d="M628.3,173.9c0.9,22.3,1,44.6,0,66.9C628.1,218.4,628.1,196.2,628.3,173.9z"/>
</g>
<g>
	<path class="st0" d="M629.8,173.8c0.9,22.5,0.9,45.1,0,67.6C629.6,218.9,629.5,196.4,629.8,173.8z"/>
</g>
<g>
	<path class="st0" d="M356.2,207.3c0.6-10.5-1.6-21.5,1.7-31.7c-1.3,21.1-1.9,42.5,0,63.6C354.7,228.9,356.7,217.9,356.2,207.3z"/>
</g>
<g>
	<g>
		<path class="st0" d="M357.9,175.6c2.7,1.7,5.3,4.2,8.8,3.9c0.8,0.1,1.4,0,2-0.6c2.3-1,5.1-0.8,7.5-0.2c0.6,0.4,1.3,0.6,2,0.5
			c5.9,0.7,9.8,6.1,15.5,7.5c2.1,0.1,4.2,0.3,6.3,0.1c3.2-0.7,5.8-2.8,9-3.7c0.4,0,1.2-0.1,1.7-0.2c1.3-0.1,2,1.4,2.6,2.3
			c0,9.8-0.2,19.6-0.2,29.5l0,0.8c-3.6,2.1-7.3,5-11.7,5.2c-2.6,0.1-5.1,0.1-7.7,0c-6.1-0.5-10.8-5.2-16.2-7.4
			c-4.8-1.7-9.8-0.2-14.1,2c-0.3,0.1-0.8,0.4-1,0.6c-0.2,6.7,0,13.3,0,20c-0.9,1.7-2.9,2.3-4.4,3.3
			C356,218.1,356.6,196.7,357.9,175.6z M369.4,181.2c-2.2,0.3-4.2,1-6.3,1.6c-2.1,9.8-0.9,20.1,0,30v-0.7c3.1-1,6.1-2.5,9.5-2.5
			c8-0.6,13.5,6.4,20.8,8.1l-0.5,0c2,0,6.1,0,8.1,0l-0.5,0c3.5-0.6,6.5-2.5,9.7-3.9c0.1-9.4,0.1-18.7,0-28.1
			c-4.5,1.8-8.9,4.6-14,3.7c-7.8,0.1-13.3-6.7-20.6-8.4C373.5,181,371.4,181,369.4,181.2z"/>
	</g>
</g>
<g>
	<path class="st0" d="M366.7,179.5c0.3-1.2,1-1.4,2-0.6C368.1,179.5,367.4,179.7,366.7,179.5z"/>
</g>
<g>
	<path class="st0" d="M376.2,178.8c1-0.9,1.7-0.8,2,0.5C377.5,179.4,376.8,179.2,376.2,178.8z"/>
</g>
<g>
	<path class="st0" d="M369.4,181.2c2-0.2,4.1-0.2,6.2-0.1C373.5,181.1,371.4,181.1,369.4,181.2z"/>
</g>
<g>
	<path class="st0" d="M363,182.8c2.1-0.5,4.2-1.2,6.3-1.6c2-0.1,4.1-0.1,6.2-0.1c7.3,1.7,12.8,8.5,20.6,8.4c5.1,0.9,9.5-1.9,14-3.7
		c0.1,9.4,0.1,18.7,0,28.1c-3.2,1.4-6.3,3.3-9.7,3.9c-2.4,0.1-4.8,0.2-7.1,0c-7.3-1.7-12.8-8.7-20.8-8.1c-3.3,0-6.4,1.4-9.5,2.5
		C362.9,202.3,363,192.6,363,182.8z"/>
</g>
<g>
	<path class="st0" d="M409,183.1c-0.7-1.4,2.1-1.6,1.7-0.2C410.3,183,409.4,183.1,409,183.1z"/>
</g>
<g>
	<path class="st0" d="M363,212.8c-0.9-9.9-2.1-20.2,0-30c-0.1,9.8-0.1,19.5,0,29.3V212.8z"/>
</g>
<g>
	<path class="st0" d="M413.3,185.3l0-0.5c0.7,10,0.6,19.9,0.6,29.9l-0.8,0.1C413.1,204.9,413.3,195.1,413.3,185.3z"/>
</g>
<g>
	<path class="st0" d="M393.7,186.8c2.1,0,4.2,0,6.3,0.1C397.9,187,395.8,186.9,393.7,186.8z"/>
</g>
<g>
	<path class="st0" d="M243.6,226.2c-0.7-11.8-0.8-23.5-0.1-35.3c0.5,11.6,0.5,23.2,0.1,34.8L243.6,226.2z"/>
	<path class="st0" d="M474.2,226.1c-0.7-11.7-0.8-23.5-0.1-35.3c0.5,11.6,0.5,23.2,0.1,34.8L474.2,226.1z"/>
	<path class="st0" d="M603.3,191.2l0-0.5c0.7,11.8,0.8,23.5,0.1,35.3C602.9,214.4,602.9,202.8,603.3,191.2z"/>
</g>
<g>
	<path class="st0" d="M243.6,190.9c2.3,0.1,4.5,0.1,6.8,0.2c0,3.8,0.1,7.7,0.3,11.5c0.1,1.7,1.9,0.3,2.4-0.4c3-3.3,9.1-3,11.5,0.8
		c0.3,0.8,0.7,1.5,1.2,2.2c0.1,0.5,0.4,1.4,0.5,1.9c0,6.2-0.1,12.5-0.2,18.7c-2,0-4.1-0.1-6.1-0.1c0-5.9,0.4-11.9-0.3-17.8
		c-1.8-3.9-6.4-2.3-8.7,0.2c-0.7,0.4-0.9,1.1-0.7,1.9c0.3,5.3,0.3,10.6,0.4,16c-2.4-0.1-4.7-0.1-7-0.2
		C244,214.1,244,202.5,243.6,190.9z"/>
	<path class="st0" d="M335.7,295.4c1.4-1.2,3.1-2,4.7-2.9c0.3,2.7,0.6,5.3,0.8,8l0.5,0.3c1.1,0.5,2.2,0.8,3.3,1.2c0,0.9,0,2.7,0,3.6
		c-1.2,0.4-2.4,0.7-3.6,1.1l-0.6,0.2c-0.2,4.8-0.2,9.7-0.1,14.5c0.3,0.1,1,0.2,1.3,0.3c0.5,0.1,1.5,0.3,2,0.4
		c0.4-0.1,1.3-0.2,1.7-0.2c-0.1,1.8-0.4,3.5-0.6,5.3c-2.9,0.3-5.5-0.1-7.8-1.4c-0.6-0.7-1.3-1.5-2.2-1.8l-0.4-0.2
		c0-5.7,0-11.4-0.6-17.1c-0.5-0.3-1.5-1-2-1.3c0-0.8,0.1-2.5,0.2-3.3c0.2-0.4,0.6-1.1,0.8-1.5C333.9,298.8,334.8,297.1,335.7,295.4z
		"/>
</g>
<g>
	<path class="st0" d="M474.1,190.9c2.2,0.1,4.3,0.2,6.5,0.3c-0.4,11.6-0.4,23.2,0.1,34.8c-2.2-0.1-4.3-0.2-6.5-0.3
		C474.6,214,474.6,202.4,474.1,190.9z"/>
	<path class="st0" d="M487.4,190.9c2.2,0,4.5,0,6.8,0c-0.1,2.1-0.1,4.2-0.1,6.3c-2.3,0-4.5,0-6.8,0C487.3,195,487.3,193,487.4,190.9
		z"/>
	<path class="st0" d="M487.4,200.4c2.2,0.1,4.3,0.2,6.5,0.4c-0.3,8.4-0.3,16.8,0.1,25.2c-2.1-0.1-4.3-0.3-6.4-0.4
		C487.8,217.2,487.7,208.8,487.4,200.4z"/>
</g>
<g>
	<path class="st0" d="M480.6,191.2l0-0.5c0.7,11.7,0.8,23.5,0.1,35.3C480.2,214.4,480.2,202.8,480.6,191.2z"/>
	<path class="st0" d="M494.1,190.9c0.1,2.1,0.1,4.2-0.1,6.3C494,195.1,494.1,193,494.1,190.9z"/>
	<path class="st0" d="M596.2,201.7c0-3.6,0.2-7.2,0.5-10.9c0.2,4.1,0.3,8.3,0.5,12.4c-0.3-0.1-0.8-0.2-1-0.2
		C596.2,202.7,596.2,202,596.2,201.7z"/>
	<path class="st0" d="M596.3,211.6c1.6-0.1,1.8,3.4,0.1,3.3C596.3,213.8,596.3,212.7,596.3,211.6z"/>
</g>
<g>
	<path class="st0" d="M487.3,197.1c-0.1-2.1-0.1-4.2,0.1-6.3C487.3,193,487.3,195,487.3,197.1z"/>
	<path class="st0" d="M306.1,225.7c0.1-5.2,0.1-10.4,0.5-15.6c-0.1,5.4-0.2,10.7-0.5,16.1L306.1,225.7z"/>
	<path class="st0" d="M294,212.3c1.5-0.4,1.9,2.8,0.3,2.7C294.1,214.1,294,213.2,294,212.3z"/>
	<path class="st0" d="M574.8,212.3c1.5-0.4,1.9,2.8,0.3,2.7C574.9,214.1,574.8,213.2,574.8,212.3z"/>
	<path class="st0" d="M596.3,223.7c0.3-0.1,0.8-0.2,1-0.3c0.1,0.7,0,1.4-0.3,2.1C595.9,225.3,595.7,224.7,596.3,223.7z"/>
</g>
<g>
	<path class="st0" d="M526.9,191c2.2,0,4.6,0.1,6.9,0.2c-0.1,6-0.2,12-0.2,17.9c0.2-0.2,0.6-0.7,0.7-0.9c0.7-0.8,1.4-1.5,2.2-2.3
		c1.3-1.2,2.6-2.5,3.7-3.8c0.3-0.3,0.8-0.9,1.1-1.2c2,0,6.1,0,8.2,0c-1.8,1.5-3.5,3.2-5,5c-1,1.2-2,2.4-3,3.5
		c-1,0.7-0.5,1.8,0.2,2.5c3.2,4.4,5.5,9.4,8.1,14.2c-1.8-0.2-5.4-0.6-7.2-0.8c-2.4-3.2-4.1-6.9-6.1-10.4l-0.5-0.8
		c-0.9,1.2-1.8,2.4-2.5,3.7c-0.3,2.6-0.2,5.2-0.2,7.8c-2.2,0-4.4,0.1-6.6,0.2C526.9,214.2,526.9,202.6,526.9,191z"/>
</g>
<g>
	<path class="st0" d="M533.8,191.2l0-0.5c0.3,5.8,1,11.7,0.6,17.5c-0.2,0.2-0.6,0.7-0.7,0.9C533.6,203.1,533.7,197.2,533.8,191.2z"
		/>
	<path class="st0" d="M315,209l0.6,0.1c-0.1,5.5-0.2,11-0.3,16.5l0,0.5C315,220.4,314.9,214.7,315,209z"/>
	<path class="st0" d="M533.8,217.8l0.3-0.4c-0.1,2.2-0.4,6.6-0.6,8.8l0-0.5C533.6,223,533.5,220.4,533.8,217.8z"/>
</g>
<g>
	<g>
		<path class="st0" d="M596.7,190.8c2.2,0.1,4.4,0.2,6.5,0.4c-0.4,11.6-0.4,23.2,0.1,34.8c-2.1-0.2-4.3-0.3-6.4-0.5
			c0.3-0.6,0.5-1.3,0.3-2.1c-0.3,0.1-0.8,0.2-1,0.3c-0.4,0.1-1.1,0.3-1.5,0.4c-0.8,0.1-1.3,0.5-1.7,1.2c-2.4,2.4-7,1.7-9.1-0.8
			c-0.8-0.9-1.7-1.8-2.6-2.6c-1-1-2-2.2-2.2-3.7c0-2.7,0-5.5,0.2-8.2c0-0.4,0.1-1.3,0.1-1.7c0-1.1,0.4-2.1,1-3
			c0.6-0.4,1-0.9,1.2-1.7c0.3-0.7,0.7-1.2,1.5-1.5c0.7-0.2,1.3-0.6,1.7-1.2c3.1-1.6,7.1-1.3,10.1,0.5c0,0.9,0.5,1.4,1.3,1.5
			c0.3,0.1,0.8,0.2,1,0.2C597,199.1,596.9,195,596.7,190.8z M587.7,205.5c-1.1,0.4-1.3,1.1-0.4,1.9c-0.6,0.7-1.1,1.5-1.5,2.3l0-0.5
			c0,2-0.1,5.9-0.1,7.8c0.1,0.8,0.5,1.5,1.1,2c-0.3,1.3,0.2,1.8,1.5,1.4c0.7,2,3.7,1.1,4.8-0.3c1.1,1.1,3.1-0.9,2-2
			c1.1-0.7,1.1-2.1,1.2-3.3c1.6,0,1.5-3.5-0.1-3.3c-0.3-2-0.8-4.2-2.4-5.5C591.9,205.3,589.8,205.5,587.7,205.5z"/>
	</g>
	<path class="st0" d="M453.5,488.5c4.8-5.4,9.9-10.5,15.1-15.5c6,5,12,10.2,16.1,17l-1,0.1c-2.9,0.2-5.7,0.4-8.5,0.6
		c-0.2,1-0.6,3-0.8,4c-0.9,4-1.3,8.5-4.3,11.6c-1.5,1.5-3.1,3-4.6,4.5c-3.2,2.8-7.2,5-11.4,5.6c-2.2-0.1-4.3-0.2-6.5-0.3
		c-0.4,0-1.2,0-1.7,0c-3.4-0.2-7.3-1.3-9.5-4.1c-0.3-0.7-0.8-1.2-1.6-1.3c-0.9-0.3-1.8-0.7-2.7-1c0.3-1.5,0.7-2.9,1-4.4
		c3.6,1.2,7,2.7,10.6,4c0.4,0.1,1.3,0.2,1.7,0.3c0.7,0,2.1,0,2.8,0c0.4-0.1,1.3-0.2,1.7-0.2c2.3-0.9,4.7-1.6,6.9-2.8
		c1.5-1,2.8-2.3,3.8-3.7c1.1-1.7,1.9-3.7,2.2-5.7c0.3-2.3,0.6-4.5,0.9-6.8l-0.9,0c-2.5-0.1-5-0.2-7.5-0.3c0.2-0.9-0.2-1.4-1.1-1.5
		L453.5,488.5z"/>
</g>
<g>
	<g>
		<path class="st0" d="M276.6,201.6c3.6-2.1,8.9-2.5,12.2,0.4c0.8,0.9,1.7,1.7,2.6,2.6c2,2,2.6,5,2.7,7.7c0,0.9,0.1,1.8,0.3,2.7
			c-5.7,0.3-11.4,0.5-17.1,0.8c1.4,2.8,3.2,5.9,6.8,5.6c1.2,0.3,1.9-1,2.6-1.8c0.8-0.8,1.4-2.3,2.8-1.9c1.6,0.5,3.3,1.1,4.9,1.6
			c-0.7,1-1.4,1.9-2.2,2.8c-0.8,0.8-1.6,1.7-2.4,2.6c-3.4,2.8-9.9,3.3-13.1,0.1c-0.3-0.7-0.9-1.1-1.6-1.3c-3.2-1.4-3.8-5.4-3.8-8.5
			c0-0.9,0.1-1.8,0.1-2.8c0.1-0.5,0.2-1.4,0.3-1.9c0.4-0.6,0.6-1.3,0.5-2.1c0-1,0.3-2.1,0.7-3.1C274,203.9,275.3,202.7,276.6,201.6z
			 M280.3,206c-1.6,1.5-2,3.7-2.8,5.6c3.4,0,6.7,0,10.1,0c-0.3-1.5-0.7-3-1.1-4.5c0.5-1.1,0.1-1.6-1.1-1.5
			C283.8,205.6,282,205.4,280.3,206z"/>
	</g>
	<path class="st0" d="M456.7,200.2c1.2-0.4,2.6-0.5,3.8,0c0.6,0.4,1.3,0.6,2,0.5c1.1,0,2.1,0.4,3.1,0.9c0.6,0.7,1.2,1.4,1.8,2.1
		c0.8,1.2,1.4,2.6,2.1,3.9c-0.8,0-1.5,0.1-2.3,0.1c-0.9,0-1.9,0.1-2.7,0.6c-0.3,0.2-0.9,0.5-1.2,0.6c-0.2-0.5-0.6-1.6-0.8-2.1
		c-0.3-1.1-1.2-2.1-2.4-1.8c-1.8,0.3-4,0.3-5.3,1.8c-1.5,2.7-1.3,6-1.9,8.9c-0.2,0.8-0.1,1.5,0.4,2.1l0.5,0.7
		c0.4,0.8,1.1,1.8,2.2,1.8c1.8,0.2,3.6,0.2,5.4,0.3c0.9,0.1,1.4-0.3,1.4-1.2c0.3-1.3,0.5-2.6,0.8-3.9c0.5,0.2,1.4,0.6,1.8,0.8
		c1.6,0.7,3.2,1.5,4.7,2.3c-2.1,2.9-4,6.7-7.8,7.5c-3.5,0.3-8.1,1.6-10.7-1.6c-0.8-0.9-1.6-1.8-2.5-2.6c-4.5-4.5-3.5-12.8,0-17.5
		c0.9-0.8,1.8-1.6,2.6-2.5c0.8-0.7,1.7-1.4,2.9-1.3C455.4,200.8,456,200.6,456.7,200.2z"/>
	<g>
		<path class="st0" d="M557.4,201.6c3.6-2.1,8.9-2.5,12.2,0.4c0.8,0.9,1.7,1.7,2.6,2.6c2,2,2.6,5,2.7,7.7c0,0.9,0.1,1.8,0.3,2.7
			c-5.7,0.3-11.4,0.5-17.1,0.8c1.4,2.8,3.2,5.9,6.8,5.6c1.2,0.3,1.9-1,2.6-1.8c0.8-0.8,1.4-2.3,2.8-1.9c1.6,0.5,3.3,1.1,4.9,1.6
			c-0.7,1-1.4,1.9-2.2,2.8c-0.8,0.8-1.6,1.7-2.4,2.6c-3.4,2.8-9.9,3.3-13.1,0.1c-0.4-0.7-0.9-1.1-1.6-1.3c-3.2-1.4-3.8-5.4-3.8-8.5
			c0-0.9,0.1-1.8,0.1-2.8c0.1-0.5,0.2-1.4,0.3-1.9c0.4-0.6,0.6-1.3,0.5-2.1c0-1,0.3-2.1,0.7-3.1
			C554.8,203.9,556.1,202.7,557.4,201.6z M561.1,206c-1.6,1.5-2,3.7-2.8,5.6c3.4,0,6.7,0,10.1,0c-0.4-1.5-0.7-3-1.1-4.5
			c0.4-1.1,0.1-1.6-1.1-1.5C564.6,205.6,562.8,205.4,561.1,206z"/>
	</g>
</g>
<g>
	<path class="st0" d="M308.3,202.2c2.9-2.7,6.9-1.5,10.4-1.5c0.1,1,0.8,1.8,1.5,2.4c0.7,0.7,1.4,1.6,1.4,2.6
		c0.1,6.8,0,13.5,0.2,20.3c-2.2-0.1-4.4-0.2-6.6-0.3c0.1-5.5,0.2-11,0.3-16.5c0.1-0.8-0.1-1.5-0.7-2c-0.8-0.7-1.6-2-2.8-1.7
		c-1.1,0.1-2.3,0.4-3.4,0.6c-1,0.1-1.8,0.9-1.8,1.9c-0.1,0.5-0.2,1.6-0.2,2.1c-0.4,5.2-0.5,10.4-0.5,15.6c-2.3,0-4.5,0.1-6.8,0.1
		c0-8.4,0-16.8,0-25.3c1.9,0.2,3.7,0.3,5.6,0.5c0.2,1.1,0.3,2.2,0.5,3.3C306.4,203.6,307.3,202.9,308.3,202.2z"/>
	<g>
		<path class="st0" d="M371.7,307.8c-0.5-16.4,13.9-31.4,30.2-31.9c16.6,0.1,33.2,0.2,49.8-0.2c16.6,0.6,31.3,16,30.1,32.8
			c0.3,12.4-8.4,23.8-19.5,28.5c-7.1,3-15.1,2.4-22.6,2.6c-13.6-0.3-27.3,0.6-40.9-0.6C383.6,337.3,371.5,323,371.7,307.8z
			 M414.1,291.8c-0.6,1-1.3,2-1.9,3c-1.4-0.9-3.5,1.2-2.5,2.5c-1.7,1-3.4,2-5.2,2.9l0-0.7c-0.2,2.7-0.4,5.3-0.5,8
			c2.2-1.1,4.4-2.3,6.3-4c0.7,0.8,1.4,0.8,2.1-0.1c-0.3,7.7,0,15.4,0.5,23.1l0-0.5c2.1,0.1,4.3,0.2,6.4,0.3
			c0.7-11.7,0.7-23.4-0.1-35.1C418,291.5,415.4,291.7,414.1,291.8z M433,294.4c-2.6,2.7-3.2,6.7-3.9,10.3c-0.2,3.6-0.1,7.1,0,10.7
			c0.2,5.7,4.4,11.9,10.6,11.7c6.9,1,11.7-6.3,11.2-12.5c1.5,0,1.3-2.5,0.3-3.1c0.9-1.1,0.9-3,0-4.2c1-0.5,0.9-2.7-0.4-2.5
			c0.2-4.4-1.9-8.8-5.1-11.8C441.7,291,436.2,291.1,433,294.4z"/>
	</g>
	<g>
		<path class="st0" d="M401.1,411.2c-2.5-16.5,10.7-33.5,27.4-34.8c18.3,0.1,36.7,0.2,55-0.1c13.4,1.6,25.4,12.6,27.1,26.2
			c4,17.8-11.2,36.5-29.3,37.1c-16.9-0.2-33.7-0.3-50.6,0.1C415.8,438.8,402.5,426.2,401.1,411.2z M443.6,391.5c-1.7,2-3.5,4-5.2,6
			c-1.3-0.5-1.8-0.1-1.6,1.2c-1.2,0.4-2.4,0.9-3.6,1.5l-0.1-0.5c0.2,2.6,0.6,5.1,1,7.6l-0.1-0.5c1.6-1,3.4-2,4.6-3.5
			c1.1,0.6,1.7,0.2,1.7-1l0.5,0c0.1,8,0.2,16.1,0.7,24.2l0-0.5c2.3,0.1,4.5,0.1,6.9,0.2c0-11.6,0-23.2,0-34.8
			C447.3,391.3,444.8,391.4,443.6,391.5z M463.5,393.4c-1.4-1.2-3.8,1-2.7,2.4c-1.8,2.5-2.3,5.8-2.6,8.8h-0.9c0.2,3,0.4,6,0.6,9
			c0.1,3,0.6,6.4,3,8.5c-1.1,1.4,1.1,3.7,2.6,2.6c2.3,3,6.5,2.1,9.7,1.6c3.8-1.9,6.3-6.1,6.4-10.3c1.8-0.2,1.9-3.4,0.4-4.1
			c0.2-1.8,0.2-3.5-0.1-5.3c1.3-0.4,1.2-3.2-0.3-3c-0.3-4.5-2-9.9-6.7-11.5C469.8,391,466.1,391.2,463.5,393.4z"/>
	</g>
</g>
<g>
	<path class="st0" d="M454.6,200.7c0.4-1.3,1.1-1.4,2-0.5C456,200.6,455.4,200.8,454.6,200.7z"/>
	<path class="st0" d="M517.8,216.4c1-0.7,1.8-0.6,2.5,0.5l0,0.4C519.4,217.2,518.4,217.1,517.8,216.4z"/>
</g>
<g>
	<path class="st0" d="M460.4,200.2c1-0.9,1.7-0.8,2,0.5C461.7,200.8,461.1,200.7,460.4,200.2z"/>
	<path class="st0" d="M264.5,203c1.2-0.7,2.4,1.5,1.2,2.2C265.2,204.5,264.8,203.8,264.5,203z"/>
	<path class="st0" d="M271.5,210.3c-0.9-1-0.8-1.7,0.5-2.1C272.1,209,272,209.7,271.5,210.3z"/>
	<path class="st0" d="M552.3,210.3c-0.9-1-0.8-1.7,0.5-2.1C552.9,209,552.8,209.7,552.3,210.3z"/>
</g>
<g>
	<path class="st0" d="M504.9,201.5c2.2-1.6,5.3-1.4,7.9-1.5c2.5,0.7,6.5,0.6,7.4,3.7c0.1,0.7,0.4,1.4,0.9,1.8c0.6,0.8,1,1.8,1.5,2.7
		l-1.1-0.1c-1-0.2-2.1,0-3.1,0.1c-2.9,0.1-5-3.2-8-2.7c-2.7,0.4-3.6,3.2-4.6,5.3c-0.7,1.3-0.8,2.9-0.2,4.3c0.9,2.2,1.8,4.7,3.8,6.2
		c4.1,1.6,6.1-2.6,8.1-5.1l0.3,0.3c0.6,0.7,1.6,0.8,2.5,0.9c0.9,0.2,1.8,0.4,2.7,0.6c-0.7,1.4-1.4,2.9-2.5,4.1
		c-0.9,0.8-1.7,1.7-2.6,2.6c-6.5,5.8-18.1,0.4-18.8-8.2c0-2.1,0.1-4.1,0.2-6.2c0.4-1.7,1-3.4,2-4.8
		C502.5,204.1,503.7,202.8,504.9,201.5z"/>
</g>
<g>
	<path class="st0" d="M203.7,200.7c2,0,4,0,6.1,0c1.7,5.2,3.3,10.4,5,15.7c1.6-5.2,3-10.4,4.3-15.7c2.2,0,4.5,0.1,6.8,0.1
		c-0.6,0.5-0.7,1.2-0.3,1.9c1.6,4.1,2.6,8.3,3.5,12.6c-0.1,1.9,1.9,1.3,1.6-0.3c1-4.8,2.4-9.6,3.8-14.3c2.2,0,4.4,0,6.7-0.1
		c-2.7,8.4-5.2,16.9-8.1,25.2c-2.4-0.1-4.7-0.1-7-0.1c-0.7-3.3-1.8-6.4-1.9-9.8c0.1-0.8-0.1-1.4-0.6-2c-0.6-0.9-1.1-1.8-1.6-2.7
		c-0.9,3.1-1,6.6-2.7,9.4c-0.5,0.6-0.8,1.2-0.7,2c0,1.1,0,2.1,0,3.2c-2.5-0.1-4.9-0.1-7.3-0.1C208.7,217.5,205.7,209.2,203.7,200.7z
		"/>
</g>
<g>
	<path class="st0" d="M225.8,200.8c0.9,0.8,0.8,1.4-0.3,1.9C225.1,202,225.2,201.4,225.8,200.8z"/>
	<path class="st0" d="M578.8,210.1c-0.8-1-0.6-1.6,0.6-1.7c0,0.4-0.1,1.3-0.1,1.7L578.8,210.1z"/>
	<path class="st0" d="M585.9,209.2l0,0.5c-0.2,2.4-0.2,4.9-0.1,7.3C585.8,215.1,585.9,211.2,585.9,209.2z"/>
	<path class="st0" d="M223.6,214c0.5,0.6,0.7,1.2,0.6,2C222.9,215.6,222.7,215,223.6,214z"/>
	<path class="st0" d="M218.6,222.7c-0.1-0.8,0.1-1.4,0.7-2C220.1,221.7,219.9,222.4,218.6,222.7z"/>
</g>
<g>
	<path class="st0" d="M304.9,201c1.1,0.4,2.2,0.8,3.4,1.1c-1,0.7-1.9,1.5-2.9,2.2C305.2,203.2,305.1,202.1,304.9,201z"/>
</g>
<g>
	<path class="st0" d="M318.8,200.6c1.3-0.7,2.5,1.6,1.5,2.4C319.5,202.4,318.9,201.6,318.8,200.6z"/>
</g>
<g>
	<path class="st0" d="M487.5,226.2c-0.6-8.5-0.9-17.2-0.2-25.7c0.4,8.4,0.4,16.8,0.2,25.2L487.5,226.2z"/>
</g>
<g>
	<path class="st0" d="M493.9,200.8l0-0.5c0.5,8.5,0.9,17.2,0,25.7C493.6,217.6,493.6,209.2,493.9,200.8z"/>
</g>
<g>
	<path class="st0" d="M549.5,200.9l0.5-0.5c-1.3,2.3-3.3,4.1-5.5,5.5C546,204.1,547.7,202.4,549.5,200.9z"/>
</g>
<g>
	<path class="st0" d="M583.1,202.2c-0.1-1.3,0.4-1.7,1.7-1.2C584.4,201.7,583.9,202.1,583.1,202.2z"/>
	<path class="st0" d="M520.2,203.7c1.3,0.1,1.6,0.7,0.9,1.8C520.5,205,520.2,204.4,520.2,203.7z"/>
	<path class="st0" d="M314.9,207.1c0.6,0.5,0.8,1.2,0.7,2L315,209C315,208.6,314.9,207.6,314.9,207.1z"/>
	<path class="st0" d="M593.1,225.3c0.4-0.7,0.9-1.1,1.7-1.2C594.8,225.4,594.3,225.8,593.1,225.3z"/>
</g>
<g>
	<path class="st0" d="M250.7,202.6c0.3-1,1.9-1.3,2.4-0.4C252.5,202.9,250.7,204.3,250.7,202.6z"/>
</g>
<g>
	<path class="st0" d="M272.7,205.2c1.2-1.3,2.5-2.5,3.9-3.6C275.3,202.7,274,203.9,272.7,205.2z"/>
	<path class="st0" d="M553.5,205.2c1.2-1.3,2.5-2.5,3.9-3.6C556.1,202.7,554.8,203.9,553.5,205.2z"/>
</g>
<g>
	<path class="st0" d="M288.8,202c1.4-1.1,3.7,1.2,2.6,2.6C290.5,203.7,289.6,202.8,288.8,202z"/>
	<path class="st0" d="M569.6,202c1.4-1.1,3.7,1.2,2.6,2.6C571.3,203.7,570.4,202.8,569.6,202z"/>
</g>
<g>
	<path class="st0" d="M449.1,204.5c-1.1-1.4,1.3-3.7,2.6-2.5C450.9,202.9,450,203.7,449.1,204.5z"/>
</g>
<g>
	<path class="st0" d="M465.5,201.6c1.2-1.1,3.1,1.1,1.8,2.1C466.7,203.1,466.1,202.4,465.5,201.6z"/>
</g>
<g>
	<path class="st0" d="M501.3,205.4c1.1-1.4,2.3-2.7,3.6-3.9C503.7,202.8,502.5,204.1,501.3,205.4z"/>
	<path class="st0" d="M275,223.5c0.7,0.2,1.3,0.6,1.6,1.3C275.4,225.2,274.9,224.8,275,223.5z"/>
	<path class="st0" d="M555.8,223.5c0.7,0.2,1.3,0.6,1.6,1.3C556.2,225.2,555.6,224.8,555.8,223.5z"/>
</g>
<g>
	<path class="st0" d="M594.9,201.5c0.3,0,1,0.1,1.3,0.2c0,0.3,0,1,0,1.3C595.4,202.9,595,202.4,594.9,201.5z"/>
</g>
<g>
	<path class="st0" d="M536.5,205.9c1.2-1.4,2.4-2.6,3.7-3.8C539.1,203.5,537.8,204.7,536.5,205.9z"/>
</g>
<g>
	<path class="st0" d="M580.4,205.4c-0.5-1.2-0.1-1.8,1.2-1.7C581.5,204.4,581.1,205,580.4,205.4z"/>
</g>
<g>
	<path class="st0" d="M280.3,206c1.6-0.6,3.4-0.4,5.1-0.4c-0.2,0.9,0.2,1.4,1.1,1.5c0.4,1.5,0.7,3,1.1,4.5c-3.4,0-6.7,0-10.1,0
		C278.4,209.8,278.8,207.5,280.3,206z"/>
	<path class="st0" d="M561.1,206c1.6-0.6,3.4-0.4,5.1-0.4c-0.2,0.9,0.2,1.4,1.1,1.5c0.4,1.5,0.7,3,1.1,4.5c-3.4,0-6.7,0-10.1,0
		C559.1,209.8,559.6,207.5,561.1,206z"/>
</g>
<g>
	<path class="st0" d="M312.1,205.4c1.2-0.3,2,1,2.8,1.7C313.8,207.9,311.6,206.8,312.1,205.4z"/>
</g>
<g>
	<path class="st0" d="M460.1,205.1c1.2-0.3,2.2,0.7,2.4,1.8C461.5,207.6,459.6,206.2,460.1,205.1z"/>
</g>
<g>
	<path class="st0" d="M587.7,205.5c2.1,0,4.2-0.2,6.2,0.6c1.6,1.3,2.1,3.5,2.4,5.5c0,1.1,0.1,2.2,0.1,3.3c0,1.2-0.1,2.5-1.2,3.3
		c-0.7,0.6-1.4,1.3-2,2c-1.1,1.4-4.1,2.3-4.8,0.3c-0.3-0.7-0.8-1.2-1.5-1.4c-0.6-0.5-0.9-1.2-1.1-2c-0.1-2.5-0.1-4.9,0.1-7.3
		c0.4-0.8,0.9-1.6,1.5-2.3C588,206.9,588.1,206.2,587.7,205.5z"/>
</g>
<g>
	<path class="st0" d="M285.5,205.7c1.2-0.1,1.5,0.4,1.1,1.5C285.7,207,285.3,206.5,285.5,205.7z"/>
	<path class="st0" d="M566.3,205.7c1.2-0.1,1.5,0.4,1.1,1.5C566.4,207,566.1,206.5,566.3,205.7z"/>
	<path class="st0" d="M461.3,220.7c-0.1-1.2,0.3-1.6,1.4-1.2C462.7,220.4,462.2,220.8,461.3,220.7z"/>
	<path class="st0" d="M586.8,219.1c0.7,0.3,1.2,0.7,1.5,1.4C587,220.8,586.5,220.4,586.8,219.1z"/>
</g>
<g>
	<path class="st0" d="M306.9,207.9c0-1,0.8-1.8,1.8-1.9C309.5,207,307.9,208.6,306.9,207.9z"/>
</g>
<g>
	<path class="st0" d="M321.7,205.7c0.6,6.8,0.7,13.6,0.2,20.3C321.7,219.2,321.7,212.4,321.7,205.7z"/>
</g>
<g>
	<path class="st0" d="M587.3,207.4c-0.9-0.9-0.8-1.5,0.4-1.9C588.1,206.2,588,206.9,587.3,207.4z"/>
</g>
<g>
	<path class="st0" d="M266.3,207.1c0.4,6.2,0.6,12.5,0.7,18.7l-0.9,0C266.1,219.6,266.3,213.3,266.3,207.1z"/>
</g>
<g>
	<path class="st0" d="M469.4,207.6l0.3,0.3c0.1,1.4-2.2,1.4-2.6,0.3l0-0.4C467.9,207.7,468.7,207.6,469.4,207.6z"/>
</g>
<g>
	<path class="st0" d="M250.3,209.9c-0.2-0.8,0-1.5,0.7-1.9C251.7,209,251.5,209.6,250.3,209.9z"/>
</g>
<g>
	<path class="st0" d="M259.7,207.8c0.7,5.9,0.3,11.9,0.3,17.8l0,0.5C259.6,220.1,259.4,213.9,259.7,207.8z"/>
</g>
<g>
	<path class="st0" d="M464.5,208.4c0.8-0.5,1.7-0.7,2.7-0.6l0,0.4C466.3,209.2,465.4,209.2,464.5,208.4z"/>
</g>
<g>
	<path class="st0" d="M518.4,208.2c1-0.2,2.1-0.3,3.1-0.1C521.4,209.6,518.8,209.5,518.4,208.2z"/>
	<path class="st0" d="M452.8,215.8c1.2,0.4,1.3,1.1,0.4,2.1C452.7,217.2,452.6,216.5,452.8,215.8z"/>
</g>
<g>
	<path class="st0" d="M541.8,211.9c-0.8-0.6-1.2-1.8-0.2-2.5C542.5,210.1,542.6,211,541.8,211.9z"/>
</g>
<g>
	<path class="st0" d="M499.1,216.4c-0.1-2.1,0-4.1,0.2-6.2C499.2,212.2,499.1,214.3,499.1,216.4z"/>
	<path class="st0" d="M271.2,214.9c-1.6,0.3-1.5-3.1,0.1-2.8C271.3,213.1,271.3,214,271.2,214.9z"/>
	<path class="st0" d="M552,214.9c-1.6,0.3-1.5-3.1,0.1-2.8C552.1,213.1,552,214,552,214.9z"/>
</g>
<g>
	<path class="st0" d="M505.6,215.1c-0.6-1.3-0.5-3,0.2-4.3C507.1,211.7,506.9,214.2,505.6,215.1z"/>
</g>
<g>
	<path class="st0" d="M578.8,210.1l0.5,0c-0.2,2.7-0.2,5.5-0.2,8.2v0.5C579.1,216.6,578.9,212.2,578.8,210.1z"/>
</g>
<g>
	<path class="st0" d="M229,215.4c0.4-0.1,1.2-0.2,1.6-0.3C230.9,216.6,228.9,217.3,229,215.4z"/>
</g>
<g>
	<path class="st0" d="M533.8,217.8c0.7-1.3,1.5-2.5,2.5-3.7l0.5,0.8c-0.9,0.8-1.8,1.6-2.6,2.4L533.8,217.8z"/>
</g>
<g>
	<path class="st0" d="M362.4,215.9c0.3-0.1,0.8-0.4,1-0.6c-0.4,7-0.6,14-1.1,21.1v-0.5C362.3,229.3,362.1,222.6,362.4,215.9z"/>
</g>
<g>
	<path class="st0" d="M465.4,216.4c1.3-0.1,2.5-0.2,3.8-0.3c0.4,0.9,0.9,1.8,1.3,2.7l-0.4-0.2C468.6,217.9,467,217.1,465.4,216.4z"
		/>
</g>
<g>
	<path class="st0" d="M520.3,216.8c0.7-1.1,3.1-0.6,2.9,0.9l-0.3,0.2c-0.9-0.2-1.8-0.4-2.7-0.6L520.3,216.8z"/>
</g>
<g>
	<path class="st0" d="M289.5,217.7c1.9,0.2,3.8,0.8,5.5,1.8l-0.6-0.2C292.7,218.7,291.1,218.2,289.5,217.7z"/>
	<path class="st0" d="M570.3,217.7c1.9,0.2,3.8,0.8,5.5,1.8l-0.6-0.2C573.5,218.7,571.9,218.2,570.3,217.7z"/>
</g>
<g>
	<path class="st0" d="M393.3,217.8c2.4,0.2,4.7,0.1,7.1,0l0.5,0c-2,0-6.1,0-8.1,0L393.3,217.8z"/>
</g>
<g>
	<path class="st0" d="M453.7,218.6c1-0.8,2.8,0.7,2.2,1.8C454.8,220.4,454.2,219.4,453.7,218.6z"/>
</g>
<g>
	<path class="st0" d="M593.2,220.2c0.6-0.7,1.3-1.4,2-2C596.3,219.3,594.3,221.3,593.2,220.2z"/>
</g>
<g>
	<path class="st0" d="M284.1,221.3c-0.5-1.3,1.6-2.7,2.6-1.8C286,220.3,285.3,221.6,284.1,221.3z"/>
	<path class="st0" d="M564.8,221.3c-0.5-1.3,1.6-2.7,2.6-1.8C566.8,220.3,566.1,221.6,564.8,221.3z"/>
</g>
<g>
	<path class="st0" d="M393.8,220.8c2.6,0.1,5.1,0.1,7.7,0C398.9,220.8,396.3,220.8,393.8,220.8z"/>
</g>
<g>
	<path class="st0" d="M289.8,224.7c0.8-0.9,1.6-1.7,2.4-2.6C293.5,223.5,291.2,225.9,289.8,224.7z"/>
	<path class="st0" d="M570.6,224.7c0.8-0.9,1.6-1.7,2.4-2.6C574.2,223.5,572,225.9,570.6,224.7z"/>
</g>
<g>
	<path class="st0" d="M449.1,222c0.9,0.8,1.7,1.7,2.5,2.6C450.1,225.7,448,223.3,449.1,222z"/>
</g>
<g>
	<path class="st0" d="M517.9,224.5c0.8-0.9,1.7-1.8,2.6-2.6C521.6,223.3,519.3,225.6,517.9,224.5z"/>
</g>
<g>
	<path class="st0" d="M581.4,221.9c0.9,0.8,1.8,1.7,2.6,2.6C582.5,225.6,580.3,223.3,581.4,221.9z"/>
</g>
<g>
	<path class="st0" d="M192.4,257.2c0.4-0.2,1.1-0.6,1.5-0.8c8.6-0.4,17.2-0.7,25.8,0.3c9.4,1.7,13.8,12.9,23.2,14.3
		c6.6,0.5,13.2,0.5,19.8,0.5c0.4,0,1.3,0,1.7,0c-0.4,0.2-1.1,0.7-1.5,1c-7.2,0-14.3,0.2-21.5,0c-9.1-2-13.3-13-22.5-14.3
		c-7.8-0.7-15.7-0.5-23.5-0.4C194.5,257.5,193.5,257.4,192.4,257.2z"/>
</g>
<g>
	<path class="st0" d="M285.2,256.3c0.9-0.8,2.1-0.5,3.1-0.1C287.4,256.9,286,257.3,285.2,256.3z"/>
</g>
<g>
	<path class="st0" d="M288.3,256.2c70.1-0.2,140.2-0.5,210.2,0.1c1.2,0.3,2.3,0.7,3.5,1.1c-1.2,0.1-2.4,0.2-3.6,0.4
		c-54.3-0.7-108.6-0.1-162.9-0.3c-16.6,0.2-33.1-0.7-49.7,0.7c-1.6,0.2-3.3,0.5-4.8,1c-0.3,0.1-0.8,0.2-1.1,0.3
		c1.7-1.1,3.5-2.1,5.3-3.2C286,257.3,287.4,256.9,288.3,256.2z"/>
</g>
<g>
	<path class="st0" d="M191.8,257.6c0.2-0.1,0.5-0.3,0.7-0.4c1,0.2,2,0.3,3,0.5l-0.5,0c-1.6,0.2-3.1,0.5-4.6,0.9
		C190.8,258.3,191.3,257.9,191.8,257.6z"/>
</g>
<g>
	<path class="st0" d="M195.5,257.7c7.8-0.1,15.7-0.3,23.5,0.4c-8-0.1-16-0.2-24-0.4L195.5,257.7z"/>
</g>
<g>
	<path class="st0" d="M285.8,258.2c16.5-1.3,33.1-0.5,49.7-0.7c54.3,0.2,108.6-0.4,162.9,0.3l0.6,0.1
		C428,258.7,356.9,258.2,285.8,258.2z"/>
</g>
<g>
	<path class="st0" d="M498.4,257.8c1.2-0.1,2.4-0.2,3.6-0.4c0.2,0.1,0.7,0.2,1,0.3c0.4,0.3,1.1,0.8,1.5,1.1c-0.3,0-0.9,0-1.2,0
		c-1.4-0.3-2.8-0.7-4.2-0.9L498.4,257.8z"/>
</g>
<g>
	<path class="st0" d="M503,257.8c36.6-0.3,73.2-0.3,109.9,0c-36.1,1.5-72.3-0.5-108.4,1.1C504.1,258.6,503.3,258,503,257.8z"/>
</g>
<g>
	<path class="st0" d="M190.3,258.7c1.5-0.4,3.1-0.7,4.6-0.9c8,0.2,16,0.3,24,0.4c9.3,1.3,13.5,12.3,22.5,14.3
		c7.1,0.6,14.4,1.2,21.5,0c1.8-0.5,3.5-1.1,5.3-1.8c0.8-0.2,1.5-0.7,2-1.4l0.2-0.2c3.6-3.2,7-6.5,10.6-9.8c1.6-0.5,3.2-0.8,4.8-1
		c71.1-0.1,142.1,0.5,213.2-0.3c1.4,0.3,2.8,0.6,4.2,0.9c4.6,3.8,9.1,8.4,9.9,14.7c-0.4,23-0.3,46.1-0.1,69.1
		c-0.6,5.8-5.4,10-9.6,13.5c-0.4,0-1.3-0.1-1.7-0.1c-0.4,0-1.1,0-1.4,0c5.2-3.6,11.1-7.9,11.2-14.9c1-22.5,1-45.1,0.1-67.7
		c-0.9-6.8-6.4-13-13.3-14c-6.2-0.5-12.5-0.6-18.7-0.6c-50.5,0.1-101,0-151.5,0.1c-13.6,0.1-27.2-0.4-40.8,0.6
		c-10,1.1-14.3,12.8-24,14.4c-7,0.1-14.1,0.1-21.1,0c-9.8-1-14.4-12.7-24-14.4c-8-0.7-16.1-0.8-24.1,0c-6.4,1-11.8,6.7-12.7,13.1
		c-0.9,11-0.4,22-0.4,32.9c0.1,67.7,0,135.5,0,203.2c-0.4,6.8,2.6,14.5,9.1,17.4c10.2,2.9,21.1,0.8,31.5,2.7
		c7.5,2.1,11.6,10,18.6,13c6.5,1.5,13.3,1,19.9,0.8c11.9,0.5,16.9-14.6,28.6-15c53.3,0.5,106.5,0.1,159.8,0.3
		c16.3-0.1,32.7,0.5,49-0.5c7.6-0.5,13.4-7.5,14-14.8c0.8-12.9,0.9-25.9,0-38.8c-0.6-7.3-6.9-12.8-13.6-14.8c1.1,0,2.3-0.1,3.4-0.1
		c0.9,0.2,1.9,0.5,2.8,0.7c3.9,4,8.2,8.4,8.8,14.2c-0.2,13.4-0.1,26.9-0.1,40.3c-0.6,7.7-7.9,12-14.1,15.3c-0.5-0.2-1.4-0.5-1.9-0.7
		c-55.8-0.1-111.6,0-167.4,0c-13.6,0-27.2-0.4-40.8,0.6c-9.6,0.7-14.9,10-22.5,14.4c-1-0.5-1.8-0.2-2.4,0.7c-0.3,0-0.9,0-1.2,0
		c-6.5,0-13.1,0.1-19.6-0.1c-1.7-0.1-3.5-0.7-4.9-1.7c-5.8-4.2-10.9-9.2-17-13c-0.8-0.6-1.6-0.6-2.4,0c-0.5,0-1.5-0.1-2-0.1
		c-7.1-0.5-14.2-0.7-21.3-0.7c-0.5,0.2-1.4,0.6-1.9,0.8c-6.3-2.2-10.5-7.5-13.9-12.9c0.7-0.9,0.5-1.7-0.5-2.4l-0.1-0.6
		c-0.1-1.2-0.3-3.8-0.3-5c1.5-21.3,0.6-42.7,0.8-64c-0.2-16.5,0.7-33.1-0.7-49.6c0.1-1.5,0.3-4.4,0.5-5.9
		c0.6-37.9-0.1-75.9,0.3-113.8c0-0.6,0-1.7,0.1-2.3c0.6-0.9,0.5-1.7-0.3-2.4l0.4-0.6C182.7,265.6,186.1,261.7,190.3,258.7z"/>
</g>
<g>
	<path class="st0" d="M194.2,259.5c8-0.8,16.1-0.7,24.1,0C210.2,259.5,202.2,259.5,194.2,259.5z"/>
</g>
<g>
	<path class="st0" d="M270.4,269c2.6-3.7,5.5-7.2,9.5-9.4c0.3-0.1,0.8-0.2,1.1-0.3C277.5,262.5,274,265.8,270.4,269z"/>
</g>
<g>
	<path class="st0" d="M287.3,259.6c13.6-1,27.2-0.5,40.8-0.6c50.5,0,101,0.1,151.5-0.1c6.2,0,12.5,0.1,18.7,0.6
		C428,259.9,357.6,259.9,287.3,259.6z"/>
	<path class="st0" d="M288.8,527.7c10.2-0.7,20.3-0.5,30.5-0.5c59.4,0.2,118.9-0.2,178.3,0.2c-16.3,1.1-32.7,0.4-49,0.5
		C395.3,527.9,342,528.3,288.8,527.7z"/>
</g>
<g>
	<g>
		<path class="st0" d="M181.5,272.7c0.9-6.4,6.3-12.1,12.7-13.1c8-0.1,16-0.1,24.1,0c9.6,1.7,14.2,13.4,24,14.4
			c7,0.5,14.1,0.8,21.1,0c9.7-1.6,14-13.3,24-14.4c70.3,0.3,140.6,0.3,211,0c7,0.9,12.5,7.1,13.3,14c-0.3,22.5-0.3,45.1-0.1,67.7
			c-0.1,7-6,11.3-11.2,14.9c-0.5,0-1.5,0-2,0c-45.9-0.6-91.7-0.1-137.6-0.3c-8.4,0.1-16.9-0.3-25.4,0.5c-9.5,1-14.5,10.6-22.7,14.2
			c-7.8,1.5-16,1.2-23.9,0.3c-8.5-3.4-13.6-13.2-23.2-14.4c-7.5-0.7-15-0.6-22.5,0c-8.4,0.8-15.8,7.8-16.9,16.2
			c-1.3,16-0.5,32.1-0.7,48.2c0.1,7.2-0.3,14.5,0.6,21.6c0.8,5,3.5,9.4,7.4,12.6c10.8,8.6,26,0.6,37.8,6.6
			c6.6,4.3,11.3,12,19.9,12.6c6.3,0.5,12.6,0.5,18.8,0.1c2.2-0.2,4.3-0.8,6.2-2c5.9-4,11.1-9,17.2-12.7c0.8,1,2.2,0.5,3.1,0
			c53.9-0.6,107.8,0.3,161.8-0.5c6.7,2,13,7.5,13.6,14.8c-0.2,12.9-0.2,25.9,0,38.8c-0.6,7.3-6.5,14.3-14,14.8
			c-59.4-0.4-118.9,0-178.3-0.2c-10.2,0-20.4-0.1-30.5,0.5c-11.7,0.4-16.8,15.5-28.6,15c-6.6,0.2-13.4,0.7-19.9-0.8
			c-7-3-11-10.9-18.6-13c-10.4-1.9-21.2,0.2-31.5-2.7c-6.5-2.9-9.6-10.6-9.1-17.4c0-67.7,0.1-135.5,0-203.2
			C181.1,294.6,180.6,283.6,181.5,272.7z M397.2,273.5c-18.4,2.5-32,22.8-27.6,40.8c2.5,14.9,15.9,27,31,28.1
			c17.2,0.2,34.5,0.3,51.7-0.1c18.3-0.2,34.2-17.9,32.5-36.1c0.2-14.4-10.5-27.1-23.7-31.8c-6.4-2.1-13.3-1.3-20-1.5
			C426.5,273.3,411.8,272.5,397.2,273.5z M340.3,291.9l0.1,0.6c-1.6,0.9-3.3,1.7-4.7,2.9c-1,1.7-1.8,3.4-2.7,5.1
			c-0.2,0.4-0.6,1.1-0.8,1.5c-1.8-0.4-2,3.6-0.2,3.3c0.5,0.3,1.5,1,2,1.3c0.1,5.7,0.1,11.4,0.6,17.1l0.4,0.2
			c-0.9,1.2,1.2,2.8,2.2,1.8c2.2,1.3,4.8,1.8,7.8,1.4c0.3-1.8,0.5-3.5,0.6-5.3c0.2-1.3-2.3-1-1.7,0.2c-0.5-0.1-1.5-0.3-2-0.4
			c-0.6-5-0.4-10-0.5-15c1.2-0.4,2.4-0.8,3.6-1.1c1.7,0.1,1.7-3.8,0-3.6c-1.1-0.4-2.2-0.8-3.3-1.2
			C341.2,297.8,340.8,294.8,340.3,291.9z M214.5,303.1c-0.4,0-1.2,0-1.6-0.1c-0.1-0.4-0.2-1.3-0.2-1.8c-2-0.1-4-0.3-6-0.4
			c-0.9,8.5-0.5,17.2,0,25.7l0-0.5c2.1,0.1,4.2,0.3,6.4,0.4c0.4-3.8,0.3-7.7,0.4-11.5c0.2-2,0.6-4,1-5.9c0.9,0.8,2.6-0.6,1.9-1.6
			c1.6,0.2,3.1,0.5,4.6,0.7c0.6-2.5,1.1-5,1.5-7.4C219.8,301.1,215.6,299.6,214.5,303.1z M230.2,301.5c-1.2-0.5-1.8-0.2-1.7,1.2
			c-1,0.3-1.9,1.2-2.2,2.2c-1.3-0.1-1.7,0.5-1.2,1.7c-0.8,1.2-1.2,2.6-1.3,4c0,2.5-0.1,5.1-0.1,7.6c0.1,1.6,1,3.2,2.1,4.4
			c-1.2,1.4,1.1,3.7,2.5,2.5c2.3,2.4,6,2.3,9,1.5c0.9,1,1.6,0.8,2.1-0.4c2.1,0.4,3.7-1.3,4.4-3.1c1.3,0.1,1.7-0.4,1.2-1.6
			c0.5-0.6,1-1.2,1.4-2c1.8-0.8-1.3-2.5-1-0.5c-0.5,0-1.3-0.1-1.8-0.1c0.2-1.2-1.9-1.8-2.4-0.7l-0.3-0.3c-1.9,1.7-3.8,3.9-6.6,4.1
			c-1.2-1.2-2.5-2.4-3.8-3.5l-0.5-0.5c0.1-0.4,0.4-1.3,0.6-1.7c5.6-0.3,11.2-0.5,16.9-0.7c-0.3-1.2-0.7-2.4-1.1-3.5
			c1-0.9,0.9-1.6-0.3-2.1c0.2-1.9-0.7-3.8-1.9-5.3c1.2-1.4-1.1-3.8-2.5-2.5c-0.9-0.6-2-1.1-3.1-1.1c-0.4-1.3-1.1-1.4-2-0.5
			C234.4,300.1,232.1,300.6,230.2,301.5z M258,303.8c-0.1-0.9-0.1-1.7-0.1-2.6c-2-0.1-4.1-0.2-6.1-0.3c-0.7,11.7-0.7,23.5,0.1,35.3
			l0-0.5c2,0.1,4.1,0.1,6.1,0.2l0.8,0c0-3.9,0-7.8,0-11.7c1.1,0.6,2.2,1.2,3.3,1.7c2.6,2.1,6.9,1.5,9.3-0.7c1.4,1.2,3.7-1.1,2.5-2.5
			c1.3-1.4,2-3.2,2-5.1c0-2.6,0-5.1-0.1-7.6c-0.1-1.7-0.8-3.4-1.7-4.9c-1.1-1.4-2.3-2.7-3.7-3.9C266.1,299.6,261.5,301.2,258,303.8z
			 M286.9,301.2c-0.8,0-1.6,0.2-2.2,0.8c-1.3,1.2-2.6,2.4-3.7,3.8c-1,1.4-1.6,3.1-1.9,4.8c-0.1,2.3-0.1,4.6,0,6.9
			c0.8,5.8,6.7,11.1,12.8,9.5c2,0.1,4.4-0.2,5.9-1.8c1.1,1.1,3.1-0.9,2-2c1-1.1,1.4-2.6,2-4l0.3-0.3c0-1.3-2.2-1.4-2.7-0.3
			c-0.9-1-1.7-1-2.6-0.2c-0.3-0.2-0.9-0.5-1.2-0.6c-0.2,0.5-0.6,1.6-0.8,2.1c-0.9-0.8-2.9,0.6-2.4,1.7c-1.5-0.1-2.9-0.3-4.4-0.5
			c0.3-1.2-0.2-1.6-1.4-1.4c-0.2-1.3-0.4-2.7-0.6-4c5.6,0,11.1-0.1,16.7-0.1c-0.3-1.3-0.6-2.5-0.9-3.8c1.3-0.3,1-2.7-0.4-2.5
			c0-1.7-0.7-3.4-1.9-4.6c1.1-1.4-1.1-3.8-2.5-2.6c-0.8-0.7-1.9-1.2-3-1.2c-0.4-1.3-1.1-1.4-2-0.5c-1-0.4-2-0.4-3,0
			C288,299.8,287.3,299.9,286.9,301.2z M311.4,301.5c-1.2-0.5-1.8-0.1-1.7,1.2c-1.6,1.1-2,3.6-3.1,5.2l1-0.2
			c-0.1,1.2,2.1,1.4,2.5,0.4c0.4,0.2,1.1,0.6,1.5,0.8c0.2-0.4,0.7-1.2,1-1.6c1,0.8,3.1-0.5,2.6-1.7c2,0.2,4.1,0.6,5.8,1.8
			c-1,0.3-1.9,1.7-1.4,2.7l-0.8,0.5c-0.9-0.9-1.6-0.8-2.1,0.4c-2.4-0.1-5,0.4-6.8,2c-1.4-1.2-3.7,1.1-2.6,2.5
			c-0.8,0.8-1.4,1.8-1.3,3c-1.4-0.6-1.4,2.2,0,1.7c-0.2,1.2,0.4,2.3,1.3,3c-1.1,1.4,1.1,3.7,2.6,2.6c2.6,2,7.6,2.1,10-0.5
			c0.9,0.8,1.7,0.7,2.4-0.2c1.7,1.6,4.4,1.2,6.5,1.9c-0.2-1.6-0.5-3.2-0.7-4.7c0.2-5.1-0.2-10.1-0.5-15.2c0-1,0-2,0-3.1
			c0.8-1.3-1.4-2.7-2.3-1.5c-0.8-0.8-1.8-1.3-3-1.1c-0.4-1.3-1.1-1.4-2.1-0.4C317.2,300,314.1,300.5,311.4,301.5z M463.5,474.2
			c-4.2,4.6-9.6,8.5-12.6,14c-0.7,5.3,6.2,6,9.9,6.5c-1.2,6.6-7.1,13.2-14.3,11.9c-4.2-0.1-7.7-3-11.8-3.5c-3.6,0.6-6.3,5.2-4.3,8.5
			c7.3,7.4,19,10.1,28.8,6.5c10.1-3.5,16.6-13.3,18.9-23.4c3.1-0.9,7.7-0.4,9.3-3.9c1.2-2.4-0.8-4.8-2.3-6.4
			c-4.6-4.6-8.9-9.4-14.1-13.3C468.1,469.2,465.4,472.4,463.5,474.2z"/>
	</g>
</g>
<g>
	<path class="st0" d="M267.6,269.5c0.6-0.8,2-1.4,2.6-0.3c-0.5,0.7-1.2,1.2-2,1.4C268.1,270.4,267.8,269.8,267.6,269.5z"/>
</g>
<g>
	<path class="st0" d="M264.5,271.4c1.1-0.6,2.1-1.2,3.1-1.9c0.2,0.3,0.5,0.9,0.6,1.1c-1.7,0.7-3.5,1.3-5.3,1.8
		C263.4,272.2,264.1,271.7,264.5,271.4z"/>
</g>
<g>
	<path class="st0" d="M179.8,272.9c-0.8-0.8-0.9-1.6-0.3-2.4C180.3,271.2,180.4,272,179.8,272.9z"/>
</g>
<g>
	<path class="st0" d="M243,270.9c6.6,0.3,13.2,0.3,19.8,0.5C256.2,271.4,249.6,271.4,243,270.9z"/>
</g>
<g>
	<path class="st0" d="M241.5,272.5c7.2,0.2,14.3,0,21.5,0C255.9,273.6,248.6,273,241.5,272.5z"/>
</g>
<g>
	<g>
		<path class="st0" d="M397.2,273.5c14.6-1.1,29.3-0.2,44-0.5c6.6,0.2,13.5-0.6,20,1.5c13.2,4.7,23.8,17.4,23.7,31.8
			c1.6,18.2-14.3,35.9-32.5,36.1c-17.2,0.4-34.5,0.3-51.7,0.1c-15.1-1-28.5-13.1-31-28.1C365.2,296.3,378.7,276.1,397.2,273.5z
			 M401.9,274.4c-1,0-1.9,0.2-2.8,0.5c-1-1-1.7-0.8-2.1,0.5c-4.4,0.9-9.1,2.2-12.5,5.3c-1.3-0.5-1.8-0.1-1.6,1.3
			c-6.9,4.9-11.3,13.2-11.8,21.6c-1.4-0.2-1.6,2.2-0.3,2.6c-0.2,1.2-0.2,2.4-0.1,3.6c-1.5,0.5-1.4,3.6,0.3,3.5
			c0.5,5.5,3.1,11,6.7,15.2c-0.4,1.3,0.1,1.8,1.4,1.5c0.5,1,1.4,1.7,2.3,2.4c-1,1.2,1.2,3,2.2,1.8c4.5,3.4,9.9,6.4,15.7,6.2
			c-0.2,1.4,2.2,1.6,2.6,0.4c4.7,0.9,9.5,0.3,14.2,0.5c12.6-0.3,25.2,0.5,37.7-0.4c0.9,1,1.6,0.8,2.1-0.4c5.1-0.2,10.2-2.6,14-6.1
			c1.3,0.5,1.8,0.1,1.6-1.3c3.1-1.7,4.9-5.1,7-7.8c1.9-3.3,4.2-6.8,4.1-10.7c1.2-0.4,1.4-1.1,0.5-2c0.6-3,0.6-6,0-9
			c0.9-1,0.7-1.7-0.5-2c-0.8-5.3-3.1-10.8-6.8-14.7c0.3-1.3-0.2-1.8-1.5-1.5c-4.4-5.2-10.8-9-17.6-9.8c-0.4-1.3-1-1.4-2-0.5
			c-0.9-0.4-1.8-0.6-2.8-0.6C435.1,273.5,418.5,273.5,401.9,274.4z"/>
	</g>
</g>
<g>
	<path class="st0" d="M242.2,274c7,0.1,14.1,0.1,21.1,0C256.3,274.8,249.2,274.5,242.2,274z"/>
</g>
<g>
	<path class="st0" d="M401.9,274.4c16.6-0.9,33.3-0.9,49.9-0.1C435.1,274.6,418.5,274.6,401.9,274.4z"/>
</g>
<g>
	<path class="st0" d="M511.6,273.6c0.9,22.5,0.9,45.1-0.1,67.7C511.4,318.7,511.3,296.1,511.6,273.6z"/>
</g>
<g>
	<path class="st0" d="M513.1,273.6c0.9,23,0.9,46.1-0.1,69.1C512.8,319.7,512.7,296.6,513.1,273.6z"/>
	<path class="st0" d="M513.1,473.9c1.1,13.4,0.8,26.9-0.1,40.3C513,500.7,512.9,487.3,513.1,473.9z"/>
</g>
<g>
	<path class="st0" d="M514.5,273.7c1,22.7,0.9,45.6,0.1,68.3C514.2,319.2,514.3,296.4,514.5,273.7z"/>
</g>
<g>
	<path class="st0" d="M397,275.3c0.4-1.3,1.1-1.4,2.1-0.5C398.4,275.3,397.7,275.5,397,275.3z"/>
</g>
<g>
	<g>
		<path class="st0" d="M399,274.9c0.9-0.3,1.8-0.5,2.8-0.5c16.6,0.2,33.2,0.3,49.9-0.1c1,0,1.9,0.2,2.8,0.6c0.6,0.5,1.3,0.6,2,0.5
			c6.8,0.8,13.3,4.6,17.6,9.8c0.3,0.7,0.8,1.2,1.5,1.5c3.8,3.9,6,9.3,6.8,14.7c-0.1,0.7,0.1,1.4,0.5,2c0.5,3,0.5,6,0,9
			c-0.4,0.6-0.6,1.3-0.5,2c0.1,4-2.3,7.4-4.1,10.7c-2.1,2.8-3.8,6.1-7,7.8c-0.7,0.2-1.2,0.6-1.6,1.3c-3.8,3.5-8.9,5.8-14,6.1
			c-0.7-0.1-1.4,0-2.1,0.4c-12.6,0.9-25.2,0.1-37.7,0.4c-4.7-0.2-9.5,0.4-14.2-0.5c-0.8-0.3-1.7-0.4-2.6-0.4
			c-5.9,0.3-11.2-2.7-15.7-6.2c-0.7-0.7-1.4-1.3-2.2-1.8c-0.9-0.7-1.7-1.4-2.3-2.4c-0.3-0.7-0.7-1.2-1.4-1.5
			c-3.7-4.1-6.2-9.6-6.7-15.2c-0.1-0.9-0.2-2.6-0.3-3.5c-0.1-1.2-0.1-2.4,0.1-3.6c0.3-0.8,0.4-1.7,0.3-2.6c0.5-8.4,5-16.7,11.8-21.6
			c0.7-0.2,1.2-0.6,1.6-1.3c3.4-3.1,8.2-4.4,12.5-5.3C397.7,275.5,398.4,275.3,399,274.9z M401.9,275.9
			c-16.3,0.5-30.7,15.5-30.2,31.9c-0.2,15.2,11.9,29.5,27.1,31.3c13.6,1.2,27.3,0.3,40.9,0.6c7.5-0.2,15.5,0.4,22.6-2.6
			c11.1-4.7,19.8-16.2,19.5-28.5c1.2-16.8-13.6-32.2-30.1-32.8C435.1,275,418.5,274.9,401.9,275.9z"/>
	</g>
</g>
<g>
	<path class="st0" d="M454.5,274.9c1-0.9,1.7-0.7,2,0.5C455.8,275.5,455.1,275.3,454.5,274.9z"/>
</g>
<g>
	<path class="st0" d="M401.9,275.9c16.6-1,33.3-0.9,49.8-0.2C435.1,276.1,418.5,276,401.9,275.9z"/>
</g>
<g>
	<path class="st0" d="M382.8,282c-0.2-1.3,0.3-1.8,1.6-1.3C384.1,281.3,383.5,281.8,382.8,282z"/>
</g>
<g>
	<path class="st0" d="M474.2,285.2c1.3-0.3,1.8,0.1,1.5,1.5C474.9,286.3,474.4,285.9,474.2,285.2z"/>
</g>
<g>
	<path class="st0" d="M414.1,291.8c1.3-0.1,3.8-0.3,5.1-0.4c-0.3,11.7-0.4,23.4,0.1,35.1c-2.2-0.1-4.3-0.2-6.4-0.3
		c0.3-8,0.3-16-0.5-23.9l0-0.3c-0.8,0.4-1.5,1-2.2,1.6c-1.9,1.7-4,2.9-6.3,4c0.1-2.5,0.3-4.9,0.5-7.3c1.8-0.9,3.5-1.9,5.2-2.9
		c1.1-0.6,1.9-1.5,2.5-2.5C412.8,293.8,413.5,292.8,414.1,291.8z"/>
</g>
<g>
	<path class="st0" d="M419.2,291.4c0.8,11.7,0.8,23.4,0.1,35.1C418.9,314.8,418.9,303.1,419.2,291.4z"/>
</g>
<g>
	<g>
		<path class="st0" d="M433,294.4c3.3-3.3,8.7-3.4,12.7-1.4c3.2,2.9,5.3,7.3,5.1,11.8c0,0.8,0,1.6,0,2.5c0,1.4,0,2.8,0,4.2
			c0,1,0,2.1,0,3.1c0.6,6.2-4.3,13.5-11.2,12.5c-6.2,0.2-10.4-6-10.6-11.7c-0.1-3.6-0.1-7.1,0-10.7
			C429.8,301.1,430.3,297.1,433,294.4z M437.3,298.2c-0.4,1.6-1.1,4.8-1.5,6.5c0,3,0,6.1,0,9.1c0.1,2.9,1.4,5.5,2.6,8.1
			c0.8-0.5,1.6-1.1,2.4-1.7c0.9,1.2,3.2-0.1,2.4-1.5c0.3-0.1,0.8-0.3,1.1-0.4c0-1.3,0.1-2.5,0.1-3.8c0.3-3.6,0-7.3,0-10.9l0,0.5
			c-0.2-1.5-0.7-3-1.7-4.2c1.1-0.9-0.3-3.2-1.6-2.4l-0.2-0.4C439.7,297.6,438.5,297.9,437.3,298.2z"/>
	</g>
</g>
<g>
	<path class="st0" d="M340.3,291.9c0.5,3,0.9,5.9,1.5,8.9l-0.5-0.3c-0.3-2.7-0.6-5.3-0.8-8L340.3,291.9z"/>
</g>
<g>
	<path class="st0" d="M409.7,297.3c-0.9-1.4,1.2-3.4,2.5-2.5C411.6,295.8,410.7,296.7,409.7,297.3z"/>
</g>
<g>
	<path class="st0" d="M333.1,300.5c0.8-1.7,1.7-3.5,2.7-5.1C334.8,297.1,333.9,298.8,333.1,300.5z"/>
</g>
<g>
	<path class="st0" d="M437.3,298.2c1.2-0.3,2.4-0.6,3.7-0.9l0.2,0.4c0.3,0.9,0.9,1.7,1.6,2.4c0.9,1.2,1.5,2.7,1.7,4.2
		c0,3.4,0.1,6.9,0,10.4c0,1.3-0.1,2.5-0.1,3.8c-0.3,0.1-0.8,0.3-1.1,0.4c-0.9,0.3-1.7,0.8-2.4,1.5c-0.8,0.6-1.6,1.1-2.4,1.7
		c-1.2-2.6-2.5-5.2-2.6-8.1c-0.1-3.1-0.1-6.1,0-9.1C436.1,303.1,436.9,299.9,437.3,298.2z"/>
</g>
<g>
	<path class="st0" d="M441.1,297.7c1.3-0.8,2.7,1.4,1.6,2.4C442,299.4,441.4,298.6,441.1,297.7z"/>
	<path class="st0" d="M440.7,320.2c0.7-0.6,1.5-1.2,2.4-1.5C444,320.1,441.6,321.4,440.7,320.2z"/>
</g>
<g>
	<path class="st0" d="M404,307.5c0.1-2.7,0.3-5.4,0.5-8l0,0.7C404.3,302.7,404.1,305.1,404,307.5z"/>
</g>
<g>
	<path class="st0" d="M214.5,303.1c1.2-3.5,5.3-2,8.2-2.3c-0.5,2.5-1,5-1.5,7.4c-1.5-0.3-3.1-0.6-4.6-0.7c-1-0.3-1.9,0.7-1.9,1.6
		c-0.5,1.9-0.9,3.9-1,5.9c-0.2,3.8-0.4,7.7-0.4,11.5c-2.1-0.1-4.2-0.3-6.4-0.4c0.3-8.4,0.3-16.8-0.1-25.2c2,0.1,4,0.2,6,0.4
		c0.1,0.4,0.2,1.3,0.2,1.8C212.6,304.4,214.4,304.2,214.5,303.1z"/>
	<g>
		<path class="st0" d="M230.2,301.5c1.9-0.9,4.3-1.5,6.4-0.8c0.6,0.4,1.3,0.6,2,0.5c1.1,0,2.2,0.4,3.1,1.1c0.8,0.8,1.7,1.7,2.5,2.5
			c1.1,1.5,2,3.4,1.9,5.3c-0.2,0.7-0.1,1.4,0.3,2.1c0.4,1.1,0.8,2.3,1.1,3.5c-5.6,0.2-11.3,0.4-16.9,0.7c-1.1-0.3-1.5,1.2-0.6,1.7
			l0.5,0.5c1.2,1.3,2.4,2.5,3.8,3.5c2.8-0.2,4.6-2.4,6.6-4.1l0.3,0.3c0.6,0.7,1.6,0.8,2.4,0.7c0.5,0,1.3,0.1,1.8,0.1
			c0.3,0.1,0.8,0.4,1,0.5c-0.4,0.7-0.8,1.4-1.4,2c-0.7,0.4-1.1,0.9-1.2,1.6c-0.7,1.8-2.4,3.4-4.4,3.1c-0.7-0.1-1.4,0-2.1,0.4
			c-3,0.8-6.7,0.8-9-1.5c-0.8-0.9-1.7-1.7-2.5-2.5c-1.1-1.2-1.9-2.7-2.1-4.4c-0.1-2.6-0.1-5.1,0.1-7.6c0.1-1.4,0.5-2.8,1.3-4
			c0.6-0.4,1-1,1.2-1.7c0.3-1,1.2-1.9,2.2-2.2C229.2,302.6,229.8,302.2,230.2,301.5z M232.6,306.1c-1.1-0.1-1.5,0.3-1.2,1.4
			c-0.2,1-0.3,1.9-0.4,2.9c-1.1-0.9-2,1.5-0.6,1.6c3.1,0,6.2-0.1,9.4-0.1c1.5,0.1,0.8-2.8-0.5-2.1c-0.1-1.1-0.2-2.1-0.4-3.2
			l-0.6,0.1c0.3-1.4-2.1-1.6-2.4-0.4C234.7,306.1,233.6,306.2,232.6,306.1z"/>
	</g>
</g>
<g>
	<path class="st0" d="M236.6,300.7c1-0.9,1.7-0.8,2,0.5C237.9,301.3,237.2,301.1,236.6,300.7z"/>
	<path class="st0" d="M312.6,307.2c0.5-1,1.4-2,2.6-1.7C315.7,306.8,313.6,308,312.6,307.2z"/>
</g>
<g>
	<g>
		<path class="st0" d="M258,303.8c3.5-2.6,8.1-4.2,12.4-2.7c1.3,1.2,2.5,2.5,3.7,3.9c0.9,1.5,1.6,3.1,1.7,4.9
			c0.1,2.5,0.2,5.1,0.1,7.6c0,1.9-0.7,3.7-2,5.1c-0.8,0.8-1.7,1.7-2.5,2.5c-2.4,2.3-6.7,2.8-9.3,0.7c-1.3-1-2.5-2.1-3.8-3.1
			c-0.1,4.3-0.2,8.7-0.3,13c-2-0.1-4.1-0.1-6.1-0.2c0.4-11.6,0.4-23.2-0.1-34.8c2,0.1,4.1,0.2,6.1,0.3
			C257.9,302.1,257.9,303,258,303.8z M262.8,306c-2.7,0.3-4,3-4,5.4c-1.7,0-1.8,3.8-0.2,3.9c0,0.7-0.1,2.2-0.1,3
			c0.3,0.1,0.8,0.4,1.1,0.5c-0.9,1.3,1.4,2.8,2.3,1.6c1,0.6,3,1.8,4,2.4c1.1-2,2.5-3.9,3.4-6.1c0.1-2.1,0.2-4.2,0.1-6.3l0,0.5
			C268.7,308.1,266.1,305.1,262.8,306z"/>
	</g>
	<g>
		<path class="st0" d="M311.4,301.5c2.7-1.1,5.8-1.6,8.6-0.8c0.6,0.4,1.3,0.6,2.1,0.4c1.1-0.2,2.2,0.4,3,1.1
			c0.7,0.6,1.4,1.3,2.3,1.5c0,1,0,2,0,3.1c0.1,5.1-0.1,10.1,0.5,15.2c0.2,1.6,0.5,3.2,0.7,4.7c-2.1-0.7-4.7-0.3-6.5-1.9
			c-0.7-0.9-1.8-0.7-2.4,0.2c-2.4,2.6-7.4,2.5-10,0.5c-0.8-0.9-1.7-1.8-2.6-2.6c-0.9-0.8-1.5-1.8-1.3-3c0-0.4,0-1.3,0-1.7
			c-0.1-1.2,0.6-2.2,1.3-3c0.9-0.8,1.7-1.7,2.6-2.5c1.8-1.6,4.4-2.1,6.8-2c0.8,0.2,1.5,0,2.1-0.4l0.8-0.5c1-0.3,2.8-1.8,1.4-2.7
			c-1.7-1.2-3.8-1.6-5.8-1.8c-1.2-0.3-2.1,0.7-2.6,1.7c-0.2,0.4-0.7,1.2-1,1.6c-0.4-0.2-1.1-0.6-1.5-0.8c-0.7-0.5-1.7-0.7-2.5-0.4
			l-1,0.2c1.1-1.6,1.4-4.1,3.1-5.2C310.5,302.6,311.1,302.2,311.4,301.5z M320.5,314.5l-0.2,0.3c-0.6,0.2-1.9,0.7-2.5,0.9
			c-1-1-1.7-0.8-2,0.5c-1.3,0.2-2.6,0.7-3.9,1c0.7,1.5,1.3,3.2,2.4,4.5c2.7,1,6.1-0.6,6.4-3.5C322.2,318.1,322.2,314.7,320.5,314.5z
			"/>
	</g>
</g>
<g>
	<path class="st0" d="M286.9,301.2c0.4-1.3,1.1-1.4,2-0.5C288.3,301.1,287.6,301.3,286.9,301.2z"/>
	<path class="st0" d="M237.3,326.7c0.6-0.4,1.3-0.6,2.1-0.4C238.9,327.5,238.3,327.7,237.3,326.7z"/>
</g>
<g>
	<g>
		<path class="st0" d="M288.9,300.7c1-0.4,2-0.4,3,0c0.6,0.4,1.3,0.6,2,0.5c1.1,0,2.2,0.5,3,1.2c0.8,0.9,1.7,1.8,2.5,2.6
			c1.2,1.2,1.9,2.9,1.9,4.6c-0.1,0.9,0.1,1.7,0.4,2.5c0.4,1.2,0.6,2.5,0.9,3.8c-5.6,0-11.2,0.1-16.7,0.1c0.2,1.3,0.4,2.6,0.6,4
			c0,0.9,0.5,1.3,1.4,1.4c1.5,0.2,2.9,0.3,4.4,0.5c1.2,0.3,2.2-0.6,2.4-1.7c0.2-0.5,0.6-1.6,0.8-2.1c0.3,0.2,0.9,0.5,1.2,0.6
			c0.8,0.5,1.7,0.6,2.7,0.6c0.8,0.1,1.6,0.1,2.3,0.1c-0.6,1.4-1,2.8-2,4c-0.7,0.6-1.4,1.3-2,2c-1.5,1.5-3.9,1.9-5.9,1.8
			c-6.1,1.5-12-3.7-12.8-9.5c-0.1-2.3-0.1-4.6,0-6.9c0.3-1.7,0.9-3.4,1.9-4.8c1.2-1.3,2.4-2.6,3.7-3.8c0.6-0.6,1.3-0.9,2.2-0.8
			C287.6,301.3,288.3,301.1,288.9,300.7z M288.1,306.2c-1.2-0.1-1.5,0.4-1.1,1.5c-0.4,1.5-0.7,3-1,4.6c3.4,0,6.7-0.1,10.1-0.1
			c-0.8-1.9-1.3-4.1-2.8-5.6C291.6,305.8,289.8,306.2,288.1,306.2z"/>
	</g>
</g>
<g>
	<path class="st0" d="M292,300.7c1-0.9,1.7-0.8,2,0.5C293.3,301.3,292.6,301.1,292,300.7z"/>
</g>
<g>
	<path class="st0" d="M320.1,300.7c0.9-1,1.6-0.8,2.1,0.4C321.4,301.3,320.7,301.1,320.1,300.7z"/>
</g>
<g>
	<path class="st0" d="M206.7,326.6c-0.5-8.5-0.9-17.2,0-25.7c0.3,8.4,0.3,16.8,0.1,25.2L206.7,326.6z"/>
</g>
<g>
	<path class="st0" d="M228.5,302.7c-0.1-1.3,0.5-1.7,1.7-1.2C229.8,302.2,229.2,302.6,228.5,302.7z"/>
	<path class="st0" d="M309.8,302.7c-0.1-1.3,0.5-1.7,1.7-1.2C311.1,302.2,310.5,302.6,309.8,302.7z"/>
	<path class="st0" d="M212.9,303c0.4,0,1.2,0,1.6,0.1C214.4,304.2,212.6,304.4,212.9,303z"/>
	<path class="st0" d="M225.1,306.6c-0.6-1.2-0.2-1.8,1.2-1.7C226.1,305.7,225.7,306.2,225.1,306.6z"/>
	<path class="st0" d="M243.8,323.2c0.2-0.7,0.6-1.3,1.2-1.6C245.5,322.8,245.1,323.4,243.8,323.2z"/>
</g>
<g>
	<path class="st0" d="M251.8,336.2c-0.7-11.7-0.8-23.5-0.1-35.3c0.5,11.6,0.4,23.2,0.1,34.8L251.8,336.2z"/>
</g>
<g>
	<path class="st0" d="M270.4,301.1c1.4,1.1,2.6,2.4,3.7,3.9C272.9,303.7,271.7,302.4,270.4,301.1z"/>
</g>
<g>
	<path class="st0" d="M332.1,305.4c-1.8,0.3-1.6-3.7,0.2-3.3C332.2,302.9,332.1,304.5,332.1,305.4z"/>
</g>
<g>
	<path class="st0" d="M345,302c1.8-0.2,1.8,3.7,0,3.6C345,304.7,345,302.9,345,302z"/>
</g>
<g>
	<path class="st0" d="M482.5,301.3c1.3,0.3,1.5,1,0.5,2C482.6,302.7,482.4,302,482.5,301.3z"/>
</g>
<g>
	<path class="st0" d="M241.7,302.3c1.4-1.2,3.7,1.1,2.5,2.5C243.4,304,242.6,303.1,241.7,302.3z"/>
</g>
<g>
	<path class="st0" d="M281,305.8c1.1-1.4,2.4-2.6,3.7-3.8C283.5,303.2,282.2,304.5,281,305.8z"/>
</g>
<g>
	<path class="st0" d="M297,302.4c1.4-1.2,3.7,1.2,2.5,2.6C298.7,304.1,297.8,303.3,297,302.4z"/>
</g>
<g>
	<path class="st0" d="M325.1,302.3c0.9-1.1,3.2,0.3,2.3,1.5C326.5,303.6,325.8,302.9,325.1,302.3z"/>
</g>
<g>
	<path class="st0" d="M412.4,301.9l0,0.3c0,0.3-0.1,0.9-0.1,1.2c-0.7,0.8-1.4,0.9-2.1,0.1C410.9,302.9,411.6,302.4,412.4,301.9z"/>
</g>
<g>
	<path class="st0" d="M412.4,302.2c0.8,7.9,0.8,15.9,0.5,23.9l0,0.5c-0.5-7.7-0.8-15.4-0.5-23.1
		C412.4,303.2,412.4,302.5,412.4,302.2z"/>
	<path class="st0" d="M450.8,307.2l0.4,0c0.9,1.1,0.8,3,0,4.2l-0.3,0C450.8,310,450.8,308.6,450.8,307.2z"/>
</g>
<g>
	<path class="st0" d="M370.7,306.2c-1.3-0.3-1.1-2.7,0.3-2.6C371.1,304.5,371,305.3,370.7,306.2z"/>
</g>
<g>
	<path class="st0" d="M444.4,304.3l0-0.5c0.1,3.6,0.3,7.2,0,10.9C444.4,311.2,444.4,307.7,444.4,304.3z"/>
</g>
<g>
	<path class="st0" d="M450.8,304.8c1.3-0.3,1.4,2,0.4,2.5l-0.4,0C450.7,306.4,450.7,305.6,450.8,304.8z"/>
</g>
<g>
	<path class="st0" d="M429.1,315.3c-0.1-3.6-0.3-7.1,0-10.7C429,308.2,429,311.8,429.1,315.3z"/>
</g>
<g>
	<path class="st0" d="M435.7,313.9c0-3.1,0-6.1,0-9.1C435.7,307.7,435.7,310.8,435.7,313.9z"/>
</g>
<g>
	<path class="st0" d="M232.6,306.1c1.1,0,2.1,0,3.2,0.2c0.8,0.3,1.6,0.6,2.4,0.4l0.6-0.1c0.1,1.1,0.3,2.1,0.4,3.2
		c0,0.7,0.2,1.4,0.5,2.1c-3.1,0.1-6.2,0.1-9.4,0.1c0.2-0.4,0.5-1.2,0.6-1.6c0.1-1,0.3-1.9,0.4-2.9
		C232.3,307.5,232.7,307.1,232.6,306.1z"/>
</g>
<g>
	<path class="st0" d="M235.8,306.3c0.3-1.2,2.7-1,2.4,0.4C237.4,306.9,236.5,306.6,235.8,306.3z"/>
</g>
<g>
	<path class="st0" d="M262.8,306c3.3-0.8,5.8,2.2,6.6,5c0,1.9,0,3.9-0.1,5.8c-0.9,2.1-2.3,4-3.4,6.1c-1-0.6-3-1.8-4-2.4
		c-0.7-0.7-1.4-1.3-2.3-1.6c-0.3-0.1-0.8-0.4-1.1-0.5c0-0.7,0.1-2.2,0.1-3c0-1,0.1-2.9,0.2-3.9C258.9,309,260.2,306.3,262.8,306z"/>
</g>
<g>
	<path class="st0" d="M288.1,306.2c1.7-0.1,3.5-0.4,5.1,0.3c1.5,1.5,2,3.7,2.8,5.6c-3.4,0-6.7,0.1-10.1,0.1c0.3-1.5,0.7-3,1-4.6
		C287.8,307.6,288.2,307.1,288.1,306.2z"/>
</g>
<g>
	<path class="st0" d="M231.4,307.6c-0.3-1.1,0.1-1.6,1.2-1.4C232.7,307.1,232.3,307.5,231.4,307.6z"/>
</g>
<g>
	<path class="st0" d="M286.9,307.7c-0.4-1.1-0.1-1.6,1.1-1.5C288.2,307.1,287.8,307.6,286.9,307.7z"/>
</g>
<g>
	<path class="st0" d="M334.1,306.7c0.6,5.7,0.5,11.4,0.6,17.1C334.2,318.1,334.1,312.4,334.1,306.7z"/>
</g>
<g>
	<path class="st0" d="M340.8,306.9l0.6-0.2c0.1,5,0,10,0.5,15c-0.3-0.1-1-0.2-1.3-0.3C340.6,316.6,340.6,311.7,340.8,306.9z"/>
</g>
<g>
	<path class="st0" d="M214.5,309.1c0.1-1,0.9-1.9,1.9-1.6C217.2,308.5,215.4,309.9,214.5,309.1z"/>
</g>
<g>
	<path class="st0" d="M321,307.3c1.4,0.9-0.4,2.4-1.4,2.7C319.1,309.1,320,307.6,321,307.3z"/>
</g>
<g>
	<path class="st0" d="M327.5,306.9c0.3,5,0.7,10.1,0.5,15.2C327.4,317.1,327.6,312,327.5,306.9z"/>
	<path class="st0" d="M213.1,326.5c0-3.8,0.2-7.7,0.4-11.5C213.4,318.8,213.5,322.7,213.1,326.5z"/>
</g>
<g>
	<path class="st0" d="M307.7,307.7c0.8-0.3,1.8-0.2,2.5,0.4C309.8,309.1,307.6,309,307.7,307.7z"/>
</g>
<g>
	<path class="st0" d="M239.2,309.8c1.3-0.7,2,2.2,0.5,2.1C239.3,311.2,239.2,310.5,239.2,309.8z"/>
	<path class="st0" d="M275.8,309.9c0,2.5,0,5.1,0.1,7.6C276,315,275.9,312.4,275.8,309.9z"/>
</g>
<g>
	<path class="st0" d="M301.4,309.5c1.4-0.2,1.6,2.2,0.4,2.5C301.5,311.3,301.4,310.4,301.4,309.5z"/>
</g>
<g>
	<path class="st0" d="M370.6,309.8c0.1,0.9,0.2,2.7,0.3,3.5C369.2,313.3,369.1,310.2,370.6,309.8z"/>
</g>
<g>
	<path class="st0" d="M230.3,312c-1.4,0-0.4-2.5,0.6-1.6C230.8,310.9,230.5,311.6,230.3,312z"/>
</g>
<g>
	<path class="st0" d="M246.1,310.1c1.2,0.5,1.3,1.2,0.3,2.1C246,311.6,245.9,310.9,246.1,310.1z"/>
</g>
<g>
	<path class="st0" d="M316.7,310.9c0.5-1.2,1.2-1.3,2.1-0.4C318.2,310.9,317.5,311.1,316.7,310.9z"/>
</g>
<g>
	<path class="st0" d="M223.7,318.3c0-2.5,0-5.1,0.1-7.6C223.6,313.2,223.7,315.7,223.7,318.3z"/>
</g>
<g>
	<path class="st0" d="M258.7,315.3c-1.6-0.1-1.5-3.9,0.2-3.9C258.8,312.4,258.7,314.3,258.7,315.3z"/>
</g>
<g>
	<path class="st0" d="M269.4,311l0-0.5c0.1,2.1,0,4.2-0.1,6.3C269.4,314.9,269.5,312.9,269.4,311z"/>
</g>
<g>
	<path class="st0" d="M279.1,317.5c-0.1-2.3-0.1-4.6,0-6.9C279,313,279.1,315.2,279.1,317.5z"/>
</g>
<g>
	<path class="st0" d="M450.8,311.4l0.3,0c1,0.6,1.2,3.2-0.3,3.1C450.8,313.5,450.8,312.4,450.8,311.4z"/>
</g>
<g>
	<path class="st0" d="M307.3,315.4c-1.2-1.4,1.2-3.7,2.6-2.5C309,313.7,308.2,314.6,307.3,315.4z"/>
</g>
<g>
	<path class="st0" d="M482.5,314.3c-0.1-0.7,0-1.4,0.5-2C483.9,313.3,483.8,313.9,482.5,314.3z"/>
</g>
<g>
	<path class="st0" d="M320.5,314.5c1.7,0.1,1.6,3.5,0.1,3.7c-0.1-1.2-0.2-2.3-0.3-3.5L320.5,314.5z"/>
</g>
<g>
	<path class="st0" d="M315.8,316.2c0.4-1.3,1.1-1.4,2-0.5C317.2,316.1,316.5,316.3,315.8,316.2z"/>
</g>
<g>
	<path class="st0" d="M317.8,315.8c0.6-0.2,1.9-0.7,2.5-0.9c0.1,1.2,0.2,2.3,0.3,3.5c-0.3,2.9-3.7,4.5-6.4,3.5
		c-1.1-1.3-1.7-3-2.4-4.5c1.3-0.4,2.6-0.8,3.9-1C316.5,316.3,317.2,316.1,317.8,315.8z"/>
</g>
<g>
	<path class="st0" d="M230,318.1c-0.9-0.5-0.5-2,0.6-1.7C230.4,316.8,230.1,317.7,230,318.1z"/>
</g>
<g>
	<path class="st0" d="M241.2,318.3c0.5-1.1,2.6-0.5,2.4,0.7C242.7,319.1,241.8,319,241.2,318.3z"/>
</g>
<g>
	<path class="st0" d="M245.4,319.1c-0.3-1.9,2.8-0.2,1,0.5C246.2,319.5,245.7,319.2,245.4,319.1z"/>
</g>
<g>
	<path class="st0" d="M296.8,318.6c0.9-0.9,1.8-0.8,2.6,0.2l0,0.4C298.5,319.2,297.6,319.1,296.8,318.6z"/>
</g>
<g>
	<path class="st0" d="M299.4,318.7c0.5-1.1,2.7-1,2.7,0.3l-0.3,0.3c-0.8,0-1.6-0.1-2.3-0.1L299.4,318.7z"/>
</g>
<g>
	<path class="st0" d="M305.9,320.1c-1.4,0.5-1.4-2.3,0-1.7C306,318.8,306,319.7,305.9,320.1z"/>
</g>
<g>
	<path class="st0" d="M230.5,318.6c1.3,1.1,2.6,2.3,3.8,3.5C232.9,321.1,231.6,319.9,230.5,318.6z"/>
</g>
<g>
	<path class="st0" d="M259.7,318.8c0.9,0.3,1.6,1,2.3,1.6C261,321.6,258.8,320,259.7,318.8z"/>
</g>
<g>
	<path class="st0" d="M286.6,319.9c1.2-0.3,1.6,0.2,1.4,1.4C287.1,321.3,286.6,320.8,286.6,319.9z"/>
	<path class="st0" d="M292.4,321.8c-0.5-1.1,1.5-2.5,2.4-1.7C294.6,321.2,293.5,322.1,292.4,321.8z"/>
</g>
<g>
	<path class="st0" d="M344,322.1c-0.6-1.2,1.9-1.6,1.7-0.2C345.2,321.9,344.4,322,344,322.1z"/>
</g>
<g>
	<path class="st0" d="M225.8,322.6c0.9,0.8,1.7,1.7,2.5,2.5C226.9,326.4,224.6,324.1,225.8,322.6z"/>
</g>
<g>
	<path class="st0" d="M271.3,325.2c0.8-0.9,1.7-1.7,2.5-2.5C275,324.1,272.7,326.4,271.3,325.2z"/>
</g>
<g>
	<path class="st0" d="M258.2,322.9c1.3,1,2.5,2.1,3.8,3.1c-1.1-0.6-2.2-1.1-3.3-1.7c0,3.9,0,7.8,0,11.7l-0.8,0
		C258,331.5,258.1,327.2,258.2,322.9z"/>
</g>
<g>
	<path class="st0" d="M297.8,325.3c0.6-0.7,1.3-1.4,2-2C301,324.4,299,326.4,297.8,325.3z"/>
</g>
<g>
	<path class="st0" d="M307.3,323.2c0.9,0.8,1.7,1.7,2.6,2.6C308.4,326.8,306.1,324.6,307.3,323.2z"/>
</g>
<g>
	<path class="st0" d="M319.8,325.2c0.6-0.9,1.7-1.1,2.4-0.2C321.5,325.9,320.7,326,319.8,325.2z"/>
</g>
<g>
	<path class="st0" d="M335.1,324c0.9,0.3,1.6,1,2.2,1.8C336.3,326.8,334.2,325.1,335.1,324z"/>
</g>
<g>
	<path class="st0" d="M377.7,328.5c0.7,0.3,1.1,0.8,1.4,1.5C377.8,330.2,377.3,329.7,377.7,328.5z"/>
</g>
<g>
	<path class="st0" d="M381.4,332.3c0.8,0.5,1.5,1.1,2.2,1.8C382.6,335.3,380.4,333.5,381.4,332.3z"/>
</g>
<g>
	<path class="st0" d="M469.9,334.2c0.4-0.6,0.9-1.1,1.6-1.3C471.7,334.2,471.1,334.7,469.9,334.2z"/>
</g>
<g>
	<path class="st0" d="M399.3,340.3c0.9-0.1,1.7,0.1,2.6,0.4C401.5,341.9,399.1,341.7,399.3,340.3z"/>
</g>
<g>
	<path class="st0" d="M453.8,340.7c0.6-0.4,1.3-0.6,2.1-0.4C455.4,341.5,454.8,341.7,453.8,340.7z"/>
</g>
<g>
	<path class="st0" d="M506,356.5c0.3-0.3,0.8-0.8,1-1c51.7,1,103.4,0,155.2,0.5c2.2,0,4.6,0.2,6.8,0.5
		C614.6,356.7,560.3,356.6,506,356.5z"/>
</g>
<g>
	<path class="st0" d="M243,356.4c7.5-0.6,15-0.7,22.5,0C258,356.3,250.5,356.2,243,356.4z"/>
	<path class="st0" d="M291,474.2c6.3,0.2,12.6,0.1,18.8,0.1C303.6,474.7,297.3,474.7,291,474.2z"/>
</g>
<g>
	<path class="st0" d="M335.3,356.3c8.4-0.8,16.9-0.5,25.4-0.5c45.9,0.3,91.7-0.3,137.6,0.3c-21,0.8-42,0.4-63,0.5
		C401.9,356.5,368.6,356.8,335.3,356.3z"/>
</g>
<g>
	<path class="st0" d="M498.3,356.1c0.5,0,1.5,0,2,0c0.4,0,1.1,0,1.4,0c-0.2,0.4-0.7,1.1-0.9,1.4h-0.7c-46-0.5-92-0.1-138-0.3
		c-9.2,0-18.4-0.2-27.6,0.5c-10.4,1.8-15.4,14.4-26.2,15.3c-5.6,0.1-11.1,0.1-16.7-0.1c-10.7-0.8-15.4-13.2-25.5-15.1
		c-8-0.8-16-0.9-23.9-0.1c-7.1,1.4-13.9,7.4-14.7,14.8c-1.1,23.2-1,46.6-0.2,69.9c0.7,7.5,7.2,12.2,13.4,15.2
		c0.8,0.5,1.6,0.4,2.4-0.3c6.9,0.2,13.9,0.4,20.8,0.2c0.3,0.9,1,1.2,2,0.9c0.6,0,1.7-0.1,2.2-0.1c1.1,0.6,2.3,1.3,3.4,1.9
		c0.7,0.9,1.4,1,2.3,0.5l0.4,0.4c2.6,2.9,5.2,5.7,8.2,8.2c2.2,1.9,4.9,3.1,7.8,3.3c6.8,0.5,13.6,0.7,20.4,0.2
		c1.4-0.2,2.9-0.5,4.1-1.2c6.5-4.1,11.8-9.8,18.4-13.7c0.8,1,2.2,0.6,3.1,0c54.1-0.3,108.2-0.4,162.2,0.1c1,0.3,2,0.6,2.9,0.8
		c-1.1,0-2.3,0.1-3.4,0.1c-53.9,0.8-107.8-0.1-161.8,0.5c-1-0.5-2.2-0.8-3.1,0c-6.1,3.7-11.2,8.8-17.2,12.7c-1.8,1.2-4,1.9-6.2,2
		c-6.3,0-12.6,0.2-18.8-0.1c-8.6-0.6-13.3-8.3-19.9-12.6c-11.7-6-27,2-37.8-6.6c-3.9-3.1-6.6-7.6-7.4-12.6
		c0.4-23.3,0.2-46.6,0.2-69.8c1.1-8.4,8.5-15.4,16.9-16.2c7.5-0.2,15-0.1,22.5,0c9.6,1.2,14.7,11.1,23.2,14.4
		c7.9,0.9,16.1,1.2,23.9-0.3c8.2-3.6,13.2-13.2,22.7-14.2c33.3,0.5,66.6,0.2,100,0.2C456.3,356.5,477.3,356.9,498.3,356.1z"/>
</g>
<g>
	<path class="st0" d="M501.7,356.1c0.4,0,1.3,0.1,1.7,0.1c0.1,0.3,0.2,1,0.3,1.3c-1,0.1-1.9,0.1-2.9,0.1
		C501,357.2,501.5,356.5,501.7,356.1z"/>
</g>
<g>
	<path class="st0" d="M242.3,357.9c8-0.8,16-0.7,23.9,0.1C258.2,357.8,250.2,357.8,242.3,357.9z"/>
</g>
<g>
	<path class="st0" d="M334.6,357.8c9.2-0.7,18.4-0.5,27.6-0.5c46,0.2,92-0.3,138,0.3l-0.7,0c-21.1,0.8-42.3,0.4-63.4,0.5
		C402.2,358,368.4,358.2,334.6,357.8z"/>
</g>
<g>
	<path class="st0" d="M500.1,357.5h0.7c0.9,0,1.9,0,2.9-0.1c44.2-0.4,88.4,0,132.6-0.2c11.1,0,22.3-0.3,33.4,0.7
		c-56.7-0.3-113.5,0.7-170.2-0.5L500.1,357.5z"/>
</g>
<g>
	<g>
		<path class="st0" d="M227.6,372.7c0.8-7.4,7.6-13.4,14.7-14.8c8-0.1,16-0.1,23.9,0.1c10.1,1.9,14.9,14.3,25.5,15.1
			c5.5,0.3,11.1,0.4,16.7,0.1c10.8-0.9,15.7-13.5,26.2-15.3c33.8,0.4,67.6,0.2,101.5,0.2c21.1-0.1,42.3,0.3,63.4-0.5
			c56.7,1.1,113.5,0.2,170.2,0.5c7.5,0.9,13.4,7.5,14.8,14.6c-0.2,23.3-0.3,46.5,0,69.8c-0.2,7.6-7.3,12-13.3,15.3
			c-0.7-0.8-1.5-0.9-2.4-0.2c-55.2,0.7-110.5-0.2-165.7,0.4c-1.5,0-3,0.1-4.5,0.1c-54.1-0.5-108.2-0.3-162.2-0.1
			c-1-0.5-2.2-0.8-3.1,0c-6.6,3.9-12,9.5-18.4,13.7c-1.2,0.8-2.7,1.1-4.1,1.2c-6.8,0-13.6,0-20.4-0.2c-2.8-0.2-5.6-1.4-7.8-3.3
			c-2.7-2.7-5.4-5.5-8.2-8.2l-0.4-0.4c-0.6-0.8-1.4-1-2.3-0.5c-1.1-0.7-2.3-1.3-3.4-1.9c-0.7-0.7-1.4-0.9-2.3-0.5
			c-0.5-0.1-1.5-0.2-2-0.3c-6.9,0.2-13.9,0-20.8-0.2c-0.9-0.7-1.7-0.6-2.4,0.3c-6.2-3-12.8-7.8-13.4-15.2
			C227.9,419.2,227.6,396,227.6,372.7z M242.3,359.4c-6.8,0.9-12.5,7.3-13.4,14c-0.8,23-0.9,46.1,0.1,69c0.6,4.9,3.9,9.4,8.2,11.7
			c5.8,3.4,12.9,1.6,19.3,2.2c5.7,0.3,12.1-0.8,17,3c6.3,3.7,10.5,11.4,18.3,12c6,0.8,12.1,0.4,18.1-0.1c7.6-0.5,11.9-7.9,17.8-11.8
			c5-3.9,11.6-3,17.5-3.2c104.7,0.2,209.4-0.1,314,0.1c5.2-0.3,10.9,0.6,15.6-2.2c4.5-2.2,7.5-6.9,8.3-11.7c0.9-23,0.8-46.1,0-69
			c-0.6-7-6.6-12.8-13.3-14.1c-4.2-0.3-8.5-0.4-12.7-0.5c-102.2,0-204.4,0-306.6,0c-5,0-10,0.3-14.9,0.6
			c-9.9,0.8-14.2,12.9-23.9,14.5c-7.5,0.8-15.2,0.8-22.7-0.1c-9.8-1.5-14-13.8-24-14.4C257.3,358.6,249.8,358.6,242.3,359.4z"/>
	</g>
</g>
<g>
	<path class="st0" d="M242.3,359.4c7.5-0.8,15-0.8,22.4-0.1C257.3,359.3,249.8,359.2,242.3,359.4z"/>
	<path class="st0" d="M291.8,471.3c6,0.1,12,0,18.1-0.1C303.8,471.7,297.7,472.1,291.8,471.3z"/>
</g>
<g>
	<path class="st0" d="M335.4,359.4c5-0.3,9.9-0.6,14.9-0.6c102.2,0.1,204.4,0,306.6,0c4.2,0.1,8.5,0.2,12.7,0.5
		C558.2,359.7,446.8,359.6,335.4,359.4z"/>
</g>
<g>
	<g>
		<path class="st0" d="M228.9,373.4c0.9-6.7,6.7-13,13.4-14c7.5-0.2,15-0.1,22.4-0.1c10,0.7,14.2,12.9,24,14.4
			c7.5,0.9,15.2,0.9,22.7,0.1c9.7-1.6,14-13.7,23.9-14.5c111.4,0.2,222.9,0.4,334.3-0.1c6.7,1.3,12.7,7.2,13.3,14.1
			c-0.2,23-0.3,46,0,69c-0.8,4.8-3.8,9.6-8.3,11.7c-4.7,2.8-10.4,1.9-15.6,2.2c-104.7-0.2-209.4,0-314-0.1
			c-5.9,0.3-12.5-0.7-17.5,3.2c-5.9,3.9-10.2,11.3-17.8,11.8c-6,0.1-12,0.2-18.1,0.1c-7.8-0.6-12.1-8.3-18.3-12
			c-4.8-3.8-11.3-2.7-17-3c-6.4-0.6-13.4,1.2-19.3-2.2c-4.3-2.3-7.6-6.8-8.2-11.7C229.1,419.4,229.3,396.4,228.9,373.4z
			 M418.3,375.8c-14,6.6-23.4,22.9-19.9,38.3c2.4,15.5,16.7,27.9,32.2,28.4c16.8,0.8,33.7,0.8,50.6-0.1c18-0.2,33.5-17.1,32.9-34.9
			c0.3-15-10.8-28.9-24.9-33.3c-11.6-2.7-23.7-0.9-35.5-1.4C442,373.3,429.6,371.2,418.3,375.8z M572.8,391.8c-4.2,2.1-6.6,6-8.6,10
			c-1.8-0.3-1.9,3.7-0.1,3.4c0.9,0.9,2.7,1.6,2.6,3.2c0.3,5.1,0.1,10.2,0.4,15.3c0.2,0.2,0.6,0.5,0.8,0.7c-0.5,1.2-0.1,1.8,1.2,1.7
			c0,0.3,0.1,0.9,0.2,1.2c1.5-0.3,4.4-0.9,5.9-1.2c0.7,1.1,1.4,1.1,2.1,0.1l0.9,0.5c-0.3-2.1-0.3-4.3-1.2-6.3l0.1,0.8
			c-1.3-0.1-2.6-0.1-3.9-0.2c0-4.8,0.2-9.6,0.5-14.3c1-0.3,3-1,4-1.3c0-1-0.1-2.9-0.1-3.8C571.5,402,573.9,395.3,572.8,391.8z
			 M262.5,402.1c-0.7-0.8-1.4-0.8-2.2,0.1c0-0.3-0.1-0.9-0.1-1.2c-2.1-0.1-4.2-0.2-6.3-0.3c-0.9,8.5-0.5,17.1,0,25.7l0-0.5
			c2.1,0.1,4.2,0.3,6.3,0.4c0.6-5,0.5-10.1,0.6-15.2c0.1-1.3,0.4-2.6,0.5-3.9c1.1,0.3,1.6-0.1,1.4-1.3c1.7,0,3.5-0.3,5.1,0.4
			c0.6,1,1,2.1,1.2,3.2c0,5.6,0.1,11.2,0.4,16.8v-0.5c2.1,0.1,4.3,0.3,6.4,0.4c0.4-5.1,0.3-10.3,0.2-15.5c-0.1-0.5-0.2-1.4-0.2-1.8
			c1.7-2.9,6.6-5.3,8.1-1c-0.3,6.1-0.1,12.2,0.3,18.4l0-0.5c2.1,0.1,4.2,0.2,6.3,0.4c0.6-6.5,0.5-13.1-0.1-19.6
			c-0.1-1.2-0.5-2.4-1.2-3.5c1.2-1.2-0.9-3.2-2-2c-3.3-1.3-7.4-1.5-10.1,1c-0.7-1-2.8-0.7-3,0.6
			C271.1,400.1,265.8,399.1,262.5,402.1z M300.1,402.6c-1.2-1.1-3.1,0.9-2,2c-1.4,1.7-2.2,3.9-2.8,6.1l0-0.5
			c-0.2,2.1-0.2,4.2-0.1,6.3c0.2,1.9,1,3.7,2.2,5.1c-1.2,1.4,1.1,3.7,2.5,2.5c6.9,6.3,19.6,1.7,21.1-7.6c0.1-2.1,0.1-4.2,0-6.3
			l0,0.5c-1.2-5.4-5.8-10.1-11.4-10.6C306.4,400.3,302.6,400.3,300.1,402.6z M357.3,401.3c-1.2-0.5-1.8-0.2-1.7,1.2
			c-1,0.3-1.9,1.2-2.2,2.2c-1.3-0.1-1.7,0.5-1.2,1.7c-0.8,1.3-1.1,2.9-1.1,4.4c-1.4-0.1-1.6,2.3-0.3,2.6c0,0.4,0,1.2,0,1.7
			c-1.3,0.3-1.1,2.7,0.3,2.6c-0.1,1.8,0.6,3.5,1.8,4.8c-1.2,1.4,1.1,3.7,2.5,2.5c2.3,2.4,6,2.3,9,1.5c1,0.9,1.7,0.8,2-0.5
			c1.9,0,3.9-1.1,4.5-3c1.3,0,1.7-0.6,1-1.8c0.5-0.7,1.1-1.3,1.5-2.1l0.3-0.3c0-1.3-2.2-1.4-2.7-0.4c-0.8-1-1.6-1.1-2.6-0.4
			l-0.5-0.4c-2,1.7-3.9,3.9-6.7,4.1c-1.2-1.2-2.5-2.4-3.8-3.5l-0.5-0.5c0.1-0.4,0.4-1.3,0.6-1.7c5.6-0.3,11.2-0.5,16.9-0.7
			c-0.3-1.2-0.7-2.4-1.1-3.5c1-0.9,0.9-1.6-0.3-2.1c0.2-1.9-0.7-3.8-1.9-5.3c1.2-1.4-1.1-3.8-2.5-2.5c-0.9-0.6-2-1.1-3.1-1.1
			c-0.4-1.3-1.1-1.4-2-0.5C361.5,399.8,359.2,400.4,357.3,401.3z M541.8,402.2c-1.5-1-3.6,1.4-2.5,2.8l-0.4,0.8
			c-1.6,0.3-1.6,3.9,0,4.2l0.4,0.8c-1,1.4,1,3.8,2.6,2.8c2.2,2.2,5.5,2.9,8.5,2.6c0.3,1.2,1,1.4,2,0.6l0.6,0.6
			c-1.1,0.7-0.8,2.9,0.4,3.4c-2.4,0.5-5,0.2-7.4,0.2c0.1-1.2-0.4-1.6-1.5-1.2c-0.2-0.6-0.7-1.8-0.9-2.3l-0.7,0.6
			c-1-0.7-1.9-0.5-2.6,0.5c-0.8-1.1-3.1-0.4-2.9,1l0.3,0.2c0.5,0.9,1.1,1.8,1.7,2.6c-1.3,1.4,0.9,3.8,2.4,2.6c4.4,3,11.3,3,15.6-0.1
			c1.3,1.2,3.8-0.8,2.8-2.3c0-0.6,0-1.7,0-2.3c1.6-0.1,1.8-3.8,0.1-4c0-0.6,0.1-1.8,0.1-2.5c-0.4-0.1-1.3-0.2-1.7-0.2
			c0-1.3-0.6-1.6-1.7-1.1c-4.1-2.3-8.9-3.1-13.1-5.4c2.3-0.9,4.6-1.7,7.1-1.9c-0.5,1.3,1.7,2.5,2.7,1.6c0.3,0.4,0.9,1.2,1.2,1.6
			l0.7-0.3c1.3,0,2.6,0,3.9-0.1c0.4-0.7,0.8-1.4,1.2-2.2l-0.4,0.2c-0.6-0.8-1.2-1.5-1.8-2.2c1.2-1.1-0.6-3.2-1.8-2.1
			c-0.7-0.5-1.5-0.7-2.3-0.9c-0.3-1.3-1-1.5-2-0.6C548.7,399.8,544.5,399.8,541.8,402.2z M587.1,401.3c-1.2-0.5-1.8-0.2-1.7,1.2
			c-1,0.3-1.9,1.2-2.2,2.2c-1.3-0.1-1.7,0.5-1.2,1.7c-0.8,1.3-1.1,2.9-1.1,4.4c-1.4-0.1-1.6,2.3-0.3,2.6c0,0.4,0,1.2,0,1.7
			c-1.3,0.3-1.1,2.7,0.3,2.6c-0.1,1.8,0.6,3.5,1.8,4.8c-1.2,1.4,1.1,3.7,2.5,2.5c2.3,2.4,6,2.3,9,1.5c1,0.9,1.7,0.8,2-0.5
			c1.9,0,3.9-1.1,4.5-3c1.3,0,1.7-0.6,1-1.8c0.5-0.7,1-1.3,1.5-2.1l0.3-0.3c0-1.3-2.2-1.4-2.7-0.4c-0.8-1-1.6-1.1-2.6-0.4l-0.5-0.4
			c-2,1.7-3.9,3.9-6.7,4.1c-1.2-1.2-2.5-2.4-3.8-3.5l-0.5-0.5c0.1-0.4,0.4-1.3,0.6-1.7c5.6-0.3,11.2-0.5,16.9-0.7
			c-0.3-1.2-0.7-2.4-1.1-3.5c1-0.9,0.9-1.6-0.3-2.1c0.2-1.9-0.7-3.8-1.9-5.3c1.2-1.4-1.1-3.8-2.5-2.5c-0.9-0.6-2-1.1-3.1-1.1
			c-0.4-1.3-1.1-1.4-2-0.5C591.3,399.8,589,400.4,587.1,401.3z M617.8,401.5c-0.8-0.9-2.8-0.4-2.9,0.9c-0.1-0.4-0.4-1.2-0.6-1.6
			c-1.4,0-4.3-0.1-5.7-0.1c-0.7,11.7-0.6,23.5,0.1,35.3l0-0.5c2.1,0.1,4.2,0.2,6.4,0.4c0.6-3.6,1.2-7.3,1.7-10.9
			c2.3,2.3,5.9,2.2,8.9,1.6c4.3-1.9,7.4-6.6,7-11.3c1.6,0,1.5-3.5-0.1-3.3c-0.5-2.6-0.5-5.9-2.4-8c1.1-1.2-1-3.1-2.1-1.9
			c-0.7-0.5-1.5-0.8-2.3-0.9c-0.3-1.3-1-1.5-2-0.6C621.7,399.9,619.6,400.6,617.8,401.5z M641,401.3c-1.2-0.5-1.8-0.1-1.7,1.2
			c-1.6,0.4-2.1,2.1-2.3,3.5c-1.7,0.1-1.7,3.8-0.1,4c0.8,6.5,10.1,5.6,14.6,7.6c-1.1,0.6-1,2.7,0.1,3.2c-2.4,0.7-4.9,0.2-7.3,0.2
			c0.2-1.2-0.3-1.6-1.5-1.3c-0.1-0.5-0.4-1.6-0.6-2.1c-0.7,0.2-2,0.6-2.7,0.8c-0.5-1.2-3-1.2-3,0.2l-0.7-0.1
			c-0.1,0.6-0.3,1.7-0.4,2.3c0.6,0.5,1.3,1,1.9,1.5c-1,1.4,1.2,3.6,2.6,2.5c0.6,0.8,1.3,1.1,2.2,1.2c0.4,1.3,1,1.4,2,0.5
			c2,0.6,4,0.6,6,0c1,0.9,1.6,0.8,2-0.5c2.9-0.2,5.9-2.8,6-5.8c1.6-0.2,1.4-3.9-0.2-4.1l-0.4-0.8c1.1-1.4-0.9-3.9-2.5-2.9
			c-3.7-2.1-8.1-2.4-12.2-3.6c0.5-0.8,0.4-1.5-0.5-2c3.3-2.7,7.3-0.7,10.4,1.2c0.9,0.7,1.7,0.5,2.5-0.5c0.5,1,2.7,1,2.6-0.4
			l-0.3-0.3c-1-2.5-2.5-5.6-5.5-6.1c-0.3-1.3-1-1.5-2-0.6C647.3,399.7,643.9,400.1,641,401.3z M322.7,401c3.1,8.4,6.6,16.7,9.9,25
			c2.2,0,4.4,0,6.6,0c3.2-8.4,6.5-16.7,9.7-25.1c-2.2,0-4.4,0-6.6,0.1c-2.2,5.5-4.2,11-6.6,16.5c-2-5.5-4-11.1-6.1-16.6
			C327.3,400.9,325,400.9,322.7,401z"/>
	</g>
	<path class="st0" d="M359.7,405.9c1.1,0,2.1,0,3.2,0.2c0.8,0.3,1.6,0.6,2.4,0.4l0.6-0.1c0.1,1.1,0.3,2.1,0.4,3.2
		c0,0.7,0.2,1.4,0.5,2.1c-3.1,0.1-6.2,0.1-9.4,0.1c0.2-0.4,0.5-1.2,0.6-1.6c0.1-1,0.3-1.9,0.4-2.9
		C359.4,407.3,359.8,406.8,359.7,405.9z"/>
	<path class="st0" d="M589.5,405.9c1.1,0,2.1,0,3.2,0.2c0.8,0.3,1.6,0.6,2.4,0.4l0.6-0.1c0.1,1.1,0.3,2.1,0.4,3.2
		c0,0.7,0.2,1.4,0.5,2.1c-3.1,0.1-6.3,0.1-9.4,0.1c0.2-0.4,0.5-1.2,0.6-1.6c0.1-1,0.3-1.9,0.4-2.9
		C589.2,407.3,589.6,406.8,589.5,405.9z"/>
</g>
<g>
	<path class="st0" d="M225.4,420.9c0.2-16.1-0.5-32.2,0.7-48.2c0,23.3,0.2,46.6-0.2,69.8C225.1,435.3,225.5,428,225.4,420.9z"/>
</g>
<g>
	<path class="st0" d="M227.3,442.5c-0.8-23.3-0.9-46.6,0.2-69.9C227.6,396,227.9,419.2,227.3,442.5z"/>
</g>
<g>
	<path class="st0" d="M291.7,373.1c5.6,0.1,11.1,0.1,16.7,0.1C302.9,373.5,297.3,373.4,291.7,373.1z"/>
</g>
<g>
	<g>
		<path class="st0" d="M418.3,375.8c11.2-4.7,23.6-2.6,35.4-3.1c11.8,0.5,23.9-1.2,35.5,1.4c14.1,4.4,25.2,18.3,24.9,33.3
			c0.7,17.9-14.8,34.7-32.9,34.9c-16.9-0.2-33.7-0.3-50.6,0.1c-15.6-0.5-29.9-12.9-32.2-28.4C394.9,398.7,404.4,382.4,418.3,375.8z
			 M428.2,375c-14.4,1.4-26.5,13.9-28.2,28.1H399c0.2,3,0.4,6,0.6,9.1c0.1,0.3,0.3,1,0.5,1.3c-0.9,1-0.8,1.7,0.5,2
			c0.2,4.4,2.6,8.5,5.3,11.8c-0.5,1.3,0,1.8,1.3,1.6c0.8,1.6,2.1,2.9,3.7,3.7c-0.2,1.3,0.3,1.8,1.6,1.3c4.2,4.6,10.8,6.1,16.7,7.1
			c17.1,0.8,34.3,1,51.3,0c0.2,1.3,2.5,1.1,2.5-0.2c6.1-0.4,12-2.8,16.5-6.9c1,1.1,3.2-0.6,2.2-1.8c6.1-4.8,9.6-12.3,10.6-19.9
			c0-2.6,0-5.1,0-7.7c-0.1-0.5-0.4-1.6-0.5-2.1c0.9-1,0.7-1.7-0.6-2c-2-11.8-12.1-22-23.7-24.5c-0.4-1.3-1.1-1.4-2-0.5
			c-0.6-0.1-1.9-0.3-2.5-0.3c0-1.3-2.3-1.5-2.5-0.2c-16.5-0.9-33.3-0.9-49.8,0C430.5,373.5,428.2,373.7,428.2,375z"/>
	</g>
</g>
<g>
	<path class="st0" d="M684.5,372.7c1.1,23.2,0.8,46.6,0,69.8C684.2,419.2,684.2,395.9,684.5,372.7z"/>
</g>
<g>
	<path class="st0" d="M229,442.4c-1.1-23-0.9-46-0.1-69C229.3,396.4,229.1,419.4,229,442.4z"/>
</g>
<g>
	<path class="st0" d="M683,373.4c0.9,23,1,46,0,69C682.7,419.4,682.8,396.4,683,373.4z"/>
</g>
<g>
	<path class="st0" d="M428.2,375c0-1.3,2.3-1.5,2.5-0.2l-0.4,0.3C429.6,375.1,428.9,375.1,428.2,375z"/>
</g>
<g>
	<path class="st0" d="M430.7,374.8c16.5-0.9,33.3-0.9,49.8,0l0.4,0.3c-16.8,0-33.7-0.1-50.5,0L430.7,374.8z"/>
</g>
<g>
	<path class="st0" d="M480.5,374.8c0.2-1.3,2.5-1.1,2.5,0.2c-0.7,0.1-1.5,0.1-2.2,0.1L480.5,374.8z"/>
</g>
<g>
	<g>
		<path class="st0" d="M399.9,403.1c1.8-14.2,13.8-26.7,28.2-28.1c0.7,0,1.4,0.1,2.2,0c16.8-0.1,33.7,0,50.5,0c0.7,0,1.4,0,2.2-0.1
			c0.6,0.1,1.9,0.3,2.5,0.3c0.6,0.5,1.3,0.6,2,0.5c11.6,2.5,21.7,12.7,23.7,24.5c-0.1,0.7,0.1,1.4,0.6,2c0.1,0.5,0.4,1.6,0.5,2.1
			c0,2.5,0.1,5.2,0,7.7c-1,7.6-4.5,15.1-10.6,19.9c-0.8,0.5-1.5,1.1-2.2,1.8c-4.5,4.1-10.5,6.5-16.5,6.9c-0.7-0.1-1.4-0.1-2.2-0.1
			c-17.2,0-34.4,0-51.7,0.2c-5.9-1-12.5-2.5-16.7-7.1c-0.4-0.7-0.9-1.1-1.6-1.3c-1.6-0.8-2.9-2.1-3.7-3.7c-0.2-0.7-0.7-1.2-1.3-1.6
			c-2.7-3.3-5.1-7.5-5.3-11.8c0.1-0.8,0-1.4-0.5-2c-0.1-0.3-0.3-1-0.5-1.3C399.6,409.2,399.8,406.1,399.9,403.1z M428.5,376.4
			c-16.6,1.4-29.9,18.3-27.4,34.8c1.3,14.9,14.7,27.6,29.5,28.4c16.8,0.8,33.7,0.8,50.6-0.1c18.1-0.5,33.3-19.3,29.3-37.1
			c-1.7-13.5-13.7-24.6-27.1-26.2C465.2,375.3,446.8,375.4,428.5,376.4z"/>
	</g>
</g>
<g>
	<path class="st0" d="M485.5,375.3c1-0.9,1.7-0.7,2,0.5C486.8,376,486.1,375.8,485.5,375.3z"/>
</g>
<g>
	<path class="st0" d="M428.5,376.4c18.3-1,36.7-1.1,55-0.1C465.2,376.6,446.8,376.5,428.5,376.4z"/>
</g>
<g>
	<path class="st0" d="M443.6,391.5c1.2-0.1,3.7-0.2,4.9-0.2c0.1,11.6,0.1,23.2,0,34.8c-2.3-0.1-4.6-0.1-6.9-0.2
		c0.2-7.9,0.3-15.8,0.3-23.7c-0.3,0-0.8,0-1,0l-0.5,0c-0.8,0-1.4,0.3-1.7,1c-1.2,1.6-2.9,2.5-4.6,3.5c-0.3-2.2-0.6-4.4-0.9-6.6
		c1.2-0.5,2.3-1,3.6-1.5c0.7-0.2,1.3-0.6,1.6-1.2C440.1,395.4,441.9,393.5,443.6,391.5z"/>
</g>
<g>
	<g>
		<path class="st0" d="M463.5,393.4c2.5-2.2,6.3-2.4,9.4-1.4c4.6,1.5,6.4,7,6.7,11.5c0,1,0.1,2,0.3,3c0.3,1.8,0.2,3.5,0.1,5.3
			c-0.2,1.4-0.3,2.7-0.4,4.1c-0.1,4.2-2.6,8.4-6.4,10.3c-3.2,0.5-7.4,1.4-9.7-1.6c-0.8-0.9-1.7-1.8-2.6-2.6c-2.4-2.1-2.8-5.6-3-8.5
			c0-3,0.1-6,0.3-9c0.4-3,0.9-6.2,2.6-8.8C461.8,395,462.7,394.2,463.5,393.4z M465.4,399.1c0.1,1.1,0.2,2.3,0.3,3.4
			c-1.2,0.4-1.4,1.1-0.5,2c-0.5,3-0.5,6.1,0,9.2c-1.4,0.4-1.2,3.2,0.4,3c0.1,1,0.5,1.8,1.2,2.6c-0.9,0.9-0.7,1.5,0.4,1.9
			c2.8-0.5,6.2-2,6-5.4c0.2-4.6,0.1-9.2-0.2-13.8l0,0.5c-0.1-2.5-2.3-6.4-5.2-4.8C467.1,396.6,464.7,397.7,465.4,399.1z"/>
	</g>
</g>
<g>
	<path class="st0" d="M572.8,391.8c1.1,3.5-1.3,10.2,4.9,9.8c0,1,0.1,2.9,0.1,3.8c-1,0.3-3,1-4,1.3c-0.3,4.8-0.5,9.5-0.5,14.3
		c1.3,0.1,2.6,0.1,3.9,0.2c0.3,1.8,0.7,3.6,1,5.4l-0.9-0.5c-0.7-0.4-1.4-0.4-2.1-0.1c-1.5,0.3-4.4,0.9-5.9,1.2
		c0-0.3-0.1-0.9-0.2-1.2c-0.1-0.8-0.5-1.3-1.2-1.7c-0.2-0.2-0.6-0.5-0.8-0.7c-0.3-5.1-0.2-10.2-0.4-15.3c0.1-1.6-1.6-2.2-2.6-3.2
		c0-0.8,0.1-2.5,0.1-3.4C566.2,397.8,568.6,393.9,572.8,391.8z"/>
</g>
<g>
	<path class="st0" d="M460.9,395.8c-1.2-1.5,1.3-3.6,2.7-2.4C462.7,394.2,461.8,395,460.9,395.8z"/>
</g>
<g>
	<path class="st0" d="M436.8,398.8c-0.2-1.3,0.4-1.7,1.6-1.2C438.1,398.2,437.5,398.6,436.8,398.8z"/>
</g>
<g>
	<path class="st0" d="M465.4,399.1c-0.7-1.4,1.7-2.5,2.5-1.3C467.1,398.3,466.4,398.9,465.4,399.1z"/>
</g>
<g>
	<path class="st0" d="M467.9,397.8c2.9-1.6,5.1,2.3,5.2,4.8c0.1,4.4,0.3,8.9,0.1,13.3c0.2,3.4-3.2,5-6,5.4c0.4-0.7,0.2-1.4-0.4-1.9
		c-0.7-0.7-1.1-1.6-1.2-2.6c-0.1-1-0.2-2-0.4-3c-0.5-3.1-0.5-6.2,0-9.2c0.5-0.6,0.6-1.3,0.5-2c-0.1-1.1-0.2-2.3-0.3-3.4
		C466.4,398.9,467.1,398.3,467.9,397.8z"/>
</g>
<g>
	<path class="st0" d="M262.5,402.1c3.4-3.1,8.7-2.1,11.9,0.7c1,1,2.2,0.1,3-0.6c2.7-2.5,6.9-2.3,10.1-1c0.6,0.7,1.3,1.4,2,2
		c0.7,1,1.1,2.2,1.2,3.5c0,6.5-0.1,13,0.1,19.6c-2.1-0.1-4.2-0.2-6.3-0.4c0-6,0.4-11.9-0.3-17.9c-1.5-4.4-6.4-1.9-8.1,1
		c-0.6,0.6-0.7,1.3-0.3,2.1c0.1,5,0.1,10.1,0.3,15.2c-2.1-0.1-4.3-0.3-6.4-0.4c0-5.5,0.1-10.9-0.4-16.3c-0.2-1.1-0.6-2.2-1.2-3.2
		c-1.6-0.7-3.4-0.4-5.1-0.4c-0.9,0-1.4,0.4-1.4,1.3c-0.2,1.3-0.4,2.6-0.5,3.9c-0.4,5-0.7,10.1-0.6,15.2c-2.1-0.1-4.2-0.3-6.3-0.4
		c0.3-8.4,0.3-16.8-0.1-25.2c2.1,0.1,4.2,0.2,6.3,0.3c0,0.3,0.1,0.9,0.1,1.2c0,0.4,0.1,1.2,0.2,1.5
		C261.2,403.3,261.8,402.7,262.5,402.1z"/>
</g>
<g>
	<g>
		<path class="st0" d="M300.1,402.6c2.5-2.3,6.3-2.3,9.6-2.4c5.6,0.4,10.3,5.1,11.4,10.6c0,1.9,0.1,3.9,0,5.8
			c-1.5,9.3-14.2,13.9-21.1,7.6c-0.8-0.9-1.7-1.7-2.5-2.5c-1.3-1.4-2.1-3.2-2.2-5.1c0-2,0-3.9,0.1-5.9c0.5-2.2,1.3-4.3,2.8-6.1
			C298.8,404,299.5,403.3,300.1,402.6z M305.3,406.4c-1.1-1.2-3.2,0.8-2,2c-1.1,3.1-2,7.5,0,10.3c-1.1,1.1,0.9,3.1,2,2
			c1.4,1.5,4.5,1.7,5.9,0c1.1,1.1,3.1-0.9,2-2c1.9-2.8,1-7.1,0-10.3c1.1-1.1-0.9-3.2-2-2C309.3,405.4,307.1,405.4,305.3,406.4z"/>
	</g>
</g>
<g>
	<g>
		<path class="st0" d="M357.3,401.3c1.9-0.9,4.3-1.5,6.4-0.8c0.6,0.4,1.3,0.6,2,0.5c1.1,0,2.2,0.4,3.1,1.1c0.8,0.8,1.6,1.7,2.5,2.5
			c1.1,1.5,2,3.4,1.9,5.3c-0.2,0.7-0.1,1.4,0.3,2.1c0.4,1.1,0.8,2.3,1.1,3.5c-5.6,0.2-11.3,0.4-16.9,0.7c-1.1-0.3-1.5,1.2-0.6,1.7
			l0.5,0.5c1.2,1.3,2.4,2.5,3.8,3.5c2.8-0.2,4.7-2.4,6.7-4.1l0.5,0.4c0.7,0.7,1.7,0.8,2.6,0.8c0.8,0.1,1.6,0.2,2.4,0.2
			c-0.5,0.7-1,1.4-1.5,2.1c-0.6,0.4-0.9,1-1,1.8c-0.6,1.8-2.6,2.9-4.5,3c-0.8-0.1-1.4,0.1-2,0.5c-3,0.7-6.7,0.8-9-1.5
			c-0.8-0.9-1.7-1.7-2.5-2.5c-1.2-1.3-1.9-3-1.8-4.8c0.1-0.9-0.1-1.8-0.3-2.6c0-0.4,0-1.2,0-1.7c0.3-0.8,0.4-1.7,0.3-2.6
			c0-1.5,0.3-3.1,1.1-4.4c0.6-0.4,1-0.9,1.2-1.7c0.3-1,1.2-1.9,2.2-2.2C356.3,402.3,356.9,401.9,357.3,401.3z M359.7,405.9
			c-1.1-0.1-1.5,0.3-1.2,1.4c-0.2,1-0.3,1.9-0.4,2.9c-1.1-0.9-2,1.5-0.6,1.6c3.1,0,6.2-0.1,9.4-0.1c1.5,0.1,0.8-2.8-0.5-2.1
			c-0.1-1.1-0.2-2.1-0.4-3.2l-0.6,0.1c0.3-1.4-2.1-1.6-2.4-0.4C361.8,405.9,360.7,405.9,359.7,405.9z"/>
	</g>
	<path class="st0" d="M541.8,402.2c2.7-2.4,6.9-2.4,10.2-1.7c0.6,0.5,1.3,0.6,2,0.6c0.8,0.1,1.6,0.4,2.3,0.9
		c0.6,0.7,1.2,1.5,1.8,2.1c0.6,0.7,1.2,1.5,1.8,2.2c-1.5,0.7-3.1,1.4-4.6,2l-0.7,0.3c-0.3-0.4-0.9-1.2-1.2-1.6
		c-0.6-0.9-1.5-1.9-2.7-1.6c-2.5,0.2-4.8,0.9-7.1,1.9c4.1,2.3,9,3.1,13.1,5.4c0.4,0.7,1,1,1.7,1.1c0.4,0.1,1.3,0.2,1.7,0.2
		c0,0.6-0.1,1.8-0.1,2.5c0,1-0.1,3-0.1,4c0,0.6,0,1.7,0,2.3c-1,0.7-1.9,1.5-2.8,2.3c-4.3,3.1-11.2,3.1-15.6,0.1
		c-0.8-0.9-1.6-1.7-2.4-2.6c-0.6-0.8-1.2-1.7-1.7-2.6c0.9-0.2,1.8-0.5,2.7-0.7c0.9-0.1,1.9-0.2,2.6-0.9l0.7-0.6
		c0.2,0.6,0.7,1.8,0.9,2.3c0.2,0.8,0.7,1.2,1.5,1.2c2.5,0,5,0.3,7.4-0.2c1.6-0.2,0.5-2.7-0.4-3.4l-0.6-0.6c-0.5-0.6-1.2-0.8-2-0.6
		c-3,0.2-6.3-0.5-8.5-2.6c-0.8-1-1.7-1.9-2.6-2.8l-0.4-0.8c0-1.1,0-3.2,0-4.2l0.4-0.8C540.1,404.1,541,403.2,541.8,402.2z"/>
	<g>
		<path class="st0" d="M587.1,401.3c1.9-0.9,4.3-1.5,6.4-0.8c0.6,0.4,1.3,0.6,2,0.5c1.1,0,2.2,0.4,3.1,1.1c0.8,0.8,1.6,1.7,2.5,2.5
			c1.1,1.5,2,3.4,1.9,5.3c-0.2,0.7-0.1,1.4,0.3,2.1c0.4,1.1,0.8,2.3,1.1,3.5c-5.6,0.2-11.3,0.4-16.9,0.7c-1.1-0.3-1.5,1.2-0.6,1.7
			l0.5,0.5c1.2,1.3,2.4,2.5,3.8,3.5c2.8-0.2,4.7-2.4,6.7-4.1l0.5,0.4c0.7,0.7,1.7,0.8,2.6,0.8c0.8,0.1,1.6,0.2,2.4,0.2
			c-0.5,0.7-1,1.4-1.5,2.1c-0.6,0.4-0.9,1-1,1.8c-0.6,1.8-2.6,2.9-4.5,3c-0.8-0.1-1.4,0.1-2,0.5c-3,0.7-6.7,0.8-9-1.5
			c-0.8-0.9-1.7-1.7-2.5-2.5c-1.2-1.3-1.9-3-1.8-4.8c0.1-0.9-0.1-1.8-0.3-2.6c0-0.4,0-1.2,0-1.7c0.2-0.8,0.4-1.7,0.3-2.6
			c0-1.5,0.3-3.1,1.1-4.4c0.6-0.4,1-0.9,1.2-1.7c0.3-1,1.2-1.9,2.2-2.2C586.1,402.3,586.7,401.9,587.1,401.3z M589.5,405.9
			c-1.2-0.1-1.6,0.3-1.2,1.4c-0.2,1-0.3,1.9-0.4,2.9c-1.1-0.9-2,1.5-0.6,1.6c3.1,0,6.2-0.1,9.4-0.1c1.5,0.1,0.8-2.8-0.5-2.1
			c-0.1-1.1-0.2-2.1-0.4-3.2l-0.6,0.1c0.3-1.4-2.1-1.6-2.4-0.4C591.6,405.9,590.5,405.9,589.5,405.9z"/>
	</g>
</g>
<g>
	<path class="st0" d="M363.6,400.5c1-0.9,1.7-0.8,2,0.5C364.9,401,364.3,400.9,363.6,400.5z"/>
	<path class="st0" d="M593.4,400.5c1-0.9,1.7-0.8,2,0.5C594.7,401,594.1,400.9,593.4,400.5z"/>
</g>
<g>
	<path class="st0" d="M433.2,399.7l0.1,0.5c0.3,2.2,0.6,4.4,0.9,6.6l0.1,0.5C433.8,404.8,433.4,402.3,433.2,399.7z"/>
</g>
<g>
	<path class="st0" d="M511.3,400.3c1.3,0.3,1.5,1,0.6,2C511.4,401.7,511.2,401.1,511.3,400.3z"/>
</g>
<g>
	<path class="st0" d="M552.1,400.5c1-0.9,1.7-0.7,2,0.6C553.3,401.1,552.6,400.9,552.1,400.5z"/>
</g>
<g>
	<g>
		<path class="st0" d="M617.8,401.5c1.8-0.9,3.9-1.6,5.9-1.1c0.6,0.5,1.3,0.7,2,0.6c0.8,0.1,1.6,0.4,2.3,0.9
			c0.6,0.7,1.3,1.3,2.1,1.9c1.9,2.1,1.8,5.3,2.4,8c0,1.1,0,2.2,0.1,3.3c0.4,4.8-2.7,9.5-7,11.3c-3,0.6-6.5,0.7-8.9-1.6
			c-0.6-0.7-1.2-1.3-1.9-2c0,4.3,0.1,8.6,0.2,12.9c-2.1-0.1-4.3-0.2-6.4-0.4c0.4-11.6,0.4-23.2-0.1-34.8c1.4,0,4.3,0.1,5.7,0.1
			c0.1,0.4,0.4,1.2,0.6,1.6c0.1,0.3,0.3,0.9,0.4,1.2C616.2,402.9,617,402.2,617.8,401.5z M615.2,410.4c-0.1,2.1-0.1,4.1,0,6.2
			c1.1,3,3.7,6.4,7.5,4.9c4.7-3,4.3-10.8,1-14.6c0.7-1.2-1.4-2.4-2.2-1.3C618.5,405.3,615.9,407.6,615.2,410.4z"/>
	</g>
</g>
<g>
	<path class="st0" d="M623.7,400.4c1-0.9,1.7-0.7,2,0.6C625,401.1,624.3,400.9,623.7,400.4z"/>
</g>
<g>
	<path class="st0" d="M641,401.3c2.9-1.1,6.3-1.6,9.3-0.8c0.6,0.5,1.3,0.6,2,0.6c3.1,0.4,4.5,3.5,5.5,6.1c-0.8,0-1.6,0.1-2.3,0.2
		c-0.9,0-1.9,0.1-2.5,0.9c-3.1-1.9-7-3.9-10.4-1.2c-1.3,0.3-0.6,2.1,0.5,2c4,1.2,8.5,1.5,12.2,3.6c0.8,1,1.6,1.9,2.5,2.9l0.4,0.8
		c0,1,0.1,3.1,0.2,4.1c-0.1,3-3.1,5.6-6,5.8c-0.8-0.1-1.4,0.1-2,0.5c-2,0.6-4,0.6-6,0c-0.6-0.5-1.3-0.6-2-0.5
		c-0.9,0-1.7-0.4-2.2-1.2c-0.8-0.9-1.6-1.8-2.6-2.5c-0.6-0.5-1.3-1-1.9-1.5c0.1-0.6,0.3-1.7,0.4-2.3l0.7,0.1c1,0.3,2,0.2,3-0.2
		c0.7-0.2,2-0.6,2.7-0.8c0.1,0.5,0.4,1.6,0.6,2.1c0.1,0.9,0.6,1.3,1.5,1.3c2.4,0.1,4.9,0.5,7.3-0.2c1.4-0.2,1.3-3-0.1-3.2
		c-4.5-2-13.8-1.1-14.6-7.6c0-1,0.1-3,0.1-4c0.2-1.4,0.7-3.1,2.3-3.5C640,402.3,640.6,401.9,641,401.3z"/>
</g>
<g>
	<path class="st0" d="M650.3,400.4c1-0.9,1.7-0.7,2,0.6C651.6,401.1,650.9,400.9,650.3,400.4z"/>
	<path class="st0" d="M642.3,426c0.7-0.1,1.4,0.1,2,0.5C643.3,427.4,642.7,427.2,642.3,426z"/>
</g>
<g>
	<path class="st0" d="M254,426.4c-0.5-8.5-0.9-17.2,0-25.7c0.3,8.4,0.3,16.8,0.1,25.2L254,426.4z"/>
</g>
<g>
	<path class="st0" d="M287.4,401.2c1.1-1.2,3.2,0.8,2,2C288.7,402.6,288.1,401.9,287.4,401.2z"/>
	<path class="st0" d="M260.3,402.2c0.7-0.9,1.4-0.9,2.2-0.1c-0.6,0.6-1.3,1.1-2,1.6C260.4,403.4,260.3,402.6,260.3,402.2z"/>
</g>
<g>
	<path class="st0" d="M322.7,401c2.3-0.1,4.6-0.1,6.9-0.1c2.1,5.5,4.1,11,6.1,16.6c2.3-5.4,4.4-11,6.6-16.5c2.2-0.1,4.4,0,6.6-0.1
		c-3.2,8.4-6.5,16.7-9.7,25.1c-2.2-0.1-4.4,0-6.6,0C329.3,417.7,325.8,409.4,322.7,401z"/>
</g>
<g>
	<path class="st0" d="M355.6,402.5c-0.1-1.3,0.5-1.7,1.7-1.2C356.9,401.9,356.3,402.3,355.6,402.5z"/>
	<path class="st0" d="M585.4,402.5c-0.1-1.3,0.5-1.7,1.7-1.2C586.7,401.9,586.1,402.3,585.4,402.5z"/>
	<path class="st0" d="M639.3,402.5c-0.1-1.3,0.4-1.7,1.7-1.2C640.6,401.9,640,402.3,639.3,402.5z"/>
	<path class="st0" d="M352.2,406.4c-0.5-1.2-0.1-1.8,1.2-1.7C353.2,405.4,352.8,406,352.2,406.4z"/>
	<path class="st0" d="M582,406.4c-0.5-1.2-0.1-1.8,1.2-1.7C583,405.4,582.6,406,582,406.4z"/>
	<path class="st0" d="M556.8,412.6c1.2-0.6,1.8-0.2,1.7,1.1C557.8,413.6,557.2,413.2,556.8,412.6z"/>
	<path class="st0" d="M370.9,423c0.1-0.7,0.4-1.3,1-1.8C372.6,422.4,372.2,423,370.9,423z"/>
	<path class="st0" d="M600.7,423c0.1-0.7,0.4-1.3,1-1.8C602.4,422.4,602,423,600.7,423z"/>
</g>
<g>
	<path class="st0" d="M564.1,405.1c-1.8,0.3-1.7-3.7,0.1-3.4C564.2,402.6,564.1,404.3,564.1,405.1z"/>
</g>
<g>
	<path class="st0" d="M608.7,436c-0.7-11.7-0.8-23.5-0.1-35.3c0.5,11.6,0.5,23.2,0.1,34.8L608.7,436z"/>
</g>
<g>
	<path class="st0" d="M614.9,402.4c0.1-1.3,2.1-1.8,2.9-0.9c-0.8,0.7-1.6,1.4-2.5,2.1C615.2,403.3,615,402.7,614.9,402.4z"/>
	<path class="st0" d="M297.5,421.6c0.8,0.8,1.7,1.7,2.5,2.5C298.6,425.4,296.3,423.1,297.5,421.6z"/>
	<path class="st0" d="M352.9,422.4c0.9,0.8,1.7,1.7,2.5,2.5C354,426.1,351.7,423.8,352.9,422.4z"/>
	<path class="st0" d="M582.7,422.4c0.9,0.8,1.7,1.7,2.5,2.5C583.8,426.1,581.5,423.8,582.7,422.4z"/>
</g>
<g>
	<path class="st0" d="M274.3,402.9c0.1-1.3,2.3-1.7,3-0.6C276.5,402.9,275.3,403.9,274.3,402.9z"/>
</g>
<g>
	<path class="st0" d="M368.8,402c1.4-1.2,3.7,1.1,2.5,2.5C370.5,403.7,369.6,402.9,368.8,402z"/>
	<path class="st0" d="M598.6,402c1.4-1.2,3.7,1.1,2.5,2.5C600.3,403.7,599.4,402.9,598.6,402z"/>
	<path class="st0" d="M557.2,424.8c0.9-0.8,1.8-1.6,2.8-2.3C561,424,558.5,426,557.2,424.8z"/>
</g>
<g>
	<path class="st0" d="M441,402.2c0.3,0,0.8,0,1,0c0,7.9-0.1,15.8-0.3,23.7l0,0.5C441.2,418.4,441.1,410.3,441,402.2z"/>
</g>
<g>
	<path class="st0" d="M539.3,405c-1.1-1.4,1-3.8,2.5-2.8C541,403.2,540.1,404.1,539.3,405z"/>
	<path class="st0" d="M651.6,417.5c1.4,0.2,1.5,3,0.1,3.2C650.6,420.2,650.5,418.1,651.6,417.5z"/>
</g>
<g>
	<path class="st0" d="M556.4,401.9c1.2-1.1,3,1.1,1.8,2.1C557.6,403.3,557,402.6,556.4,401.9z"/>
</g>
<g>
	<path class="st0" d="M628.1,401.9c1.1-1.2,3.2,0.8,2.1,1.9C629.4,403.3,628.7,402.6,628.1,401.9z"/>
</g>
<g>
	<path class="st0" d="M298.1,404.6c-1.2-1.1,0.8-3.2,2-2C299.5,403.3,298.8,404,298.1,404.6z"/>
</g>
<g>
	<path class="st0" d="M438.7,403.3c0.4-0.7,0.9-1.1,1.7-1C440.4,403.5,439.8,403.9,438.7,403.3z"/>
</g>
<g>
	<path class="st0" d="M465.2,404.5c-0.9-1-0.8-1.6,0.5-2C465.9,403.2,465.7,403.9,465.2,404.5z"/>
</g>
<g>
	<path class="st0" d="M473.2,402.5l0-0.5c0.2,4.6,0.4,9.2,0.2,13.8C473.4,411.4,473.3,407,473.2,402.5z"/>
</g>
<g>
	<path class="st0" d="M399,403.1h0.9c-0.2,3-0.3,6-0.3,9.1C399.4,409.2,399.2,406.2,399,403.1z"/>
	<path class="st0" d="M512.3,404.4c0,2.6,0,5.1,0,7.7C512.4,409.6,512.4,407,512.3,404.4z"/>
	<path class="st0" d="M410.9,432.7c0.7,0.2,1.2,0.6,1.6,1.3C411.2,434.4,410.7,434,410.9,432.7z"/>
</g>
<g>
	<path class="st0" d="M479.6,403.5c1.6-0.1,1.7,2.6,0.3,3C479.7,405.5,479.6,404.5,479.6,403.5z"/>
</g>
<g>
	<path class="st0" d="M457.3,404.6h0.9c-0.1,3-0.2,6-0.3,9C457.7,410.6,457.5,407.6,457.3,404.6z"/>
</g>
<g>
	<path class="st0" d="M305.3,406.4c1.8-1,4-1,5.8,0c0.6,0.7,1.3,1.4,2,2c1.1,3.1,1.9,7.5,0,10.3c-0.7,0.6-1.4,1.3-2,2
		c-1.4,1.7-4.4,1.5-5.9,0c-0.6-0.7-1.3-1.4-2-2c-1.9-2.8-1-7.1,0-10.3C304,407.7,304.7,407,305.3,406.4z"/>
</g>
<g>
	<path class="st0" d="M362.9,406.1c0.3-1.2,2.7-1,2.4,0.4C364.5,406.7,363.6,406.3,362.9,406.1z"/>
	<path class="st0" d="M592.7,406.1c0.3-1.2,2.7-1,2.4,0.4C594.2,406.7,593.4,406.3,592.7,406.1z"/>
	<path class="st0" d="M537.3,419.6c-0.2-1.4,2.1-2.1,2.9-1l0,0.4c-0.9,0.2-1.8,0.5-2.7,0.7L537.3,419.6z"/>
	<path class="st0" d="M636.6,418.6c0-1.4,2.5-1.4,3-0.2C638.7,418.8,637.6,418.9,636.6,418.6z"/>
</g>
<g>
	<path class="st0" d="M538.9,410c-1.6-0.3-1.6-3.9,0-4.2C538.9,406.9,538.9,409,538.9,410z"/>
	<path class="st0" d="M658.3,416.1c1.6,0.2,1.8,3.9,0.2,4.1C658.4,419.2,658.3,417.1,658.3,416.1z"/>
</g>
<g>
	<path class="st0" d="M550.9,405.3c1.2-0.3,2.1,0.7,2.7,1.6C552.6,407.8,550.4,406.6,550.9,405.3z"/>
	<path class="st0" d="M357.4,411.8c-1.4,0-0.4-2.5,0.6-1.6C357.9,410.6,357.6,411.4,357.4,411.8z"/>
	<path class="st0" d="M587.2,411.8c-1.4,0-0.4-2.5,0.6-1.6C587.7,410.6,587.4,411.4,587.2,411.8z"/>
</g>
<g>
	<path class="st0" d="M615.2,410.4c0.7-2.8,3.3-5.1,6.3-4.8c0.6,0.5,1.4,0.9,2.2,1.3c3.3,3.8,3.7,11.6-1,14.6
		c-3.8,1.6-6.4-1.9-7.5-4.9C615.1,414.5,615.1,412.4,615.2,410.4z"/>
</g>
<g>
	<path class="st0" d="M621.5,405.5c0.7-1.2,2.9,0,2.2,1.3C622.9,406.5,622.1,406.1,621.5,405.5z"/>
</g>
<g>
	<path class="st0" d="M637,409.9c-1.7-0.1-1.6-3.9,0.1-4C637,407,637,408.9,637,409.9z"/>
	<path class="st0" d="M560.2,416.3c1.6,0.1,1.5,3.9-0.1,4C560.1,419.3,560.1,417.3,560.2,416.3z"/>
</g>
<g>
	<path class="st0" d="M261.5,407.2c0-0.9,0.5-1.3,1.4-1.3C263.1,407.1,262.6,407.5,261.5,407.2z"/>
	<path class="st0" d="M544.4,419.8c1.1-0.4,1.6,0,1.5,1.2C545.1,421.1,544.6,420.7,544.4,419.8z"/>
</g>
<g>
	<path class="st0" d="M303.3,408.3c-1.2-1.1,0.9-3.2,2-2C304.7,407,304,407.7,303.3,408.3z"/>
	<path class="st0" d="M311.1,406.4c1.1-1.2,3.1,0.8,2,2C312.4,407.7,311.7,407,311.1,406.4z"/>
	<path class="st0" d="M653.1,408.2c0.5-0.8,1.6-0.9,2.5-0.9l0,0.4C654.8,408.7,654,408.9,653.1,408.2z"/>
	<path class="st0" d="M303.3,418.6c0.7,0.6,1.4,1.3,2,2C304.1,421.8,302.1,419.8,303.3,418.6z"/>
	<path class="st0" d="M311.1,420.6c0.6-0.7,1.3-1.4,2-2C314.3,419.8,312.3,421.8,311.1,420.6z"/>
</g>
<g>
	<path class="st0" d="M358.5,407.3c-0.3-1.1,0.1-1.6,1.2-1.4C359.8,406.8,359.4,407.3,358.5,407.3z"/>
	<path class="st0" d="M588.3,407.3c-0.3-1.1,0.1-1.6,1.2-1.4C589.6,406.8,589.2,407.3,588.3,407.3z"/>
	<path class="st0" d="M550.3,416.3c0.8-0.2,1.5,0,2,0.6C551.3,417.6,550.7,417.4,550.3,416.3z"/>
	<path class="st0" d="M650.4,426.5c0.6-0.4,1.3-0.6,2-0.5C652,427.2,651.3,427.4,650.4,426.5z"/>
</g>
<g>
	<path class="st0" d="M560.1,406.3l0.4-0.2c-0.4,0.7-0.8,1.4-1.2,2.2c-1.3,0-2.6,0-3.9,0.1C557,407.6,558.5,406.9,560.1,406.3z"/>
</g>
<g>
	<path class="st0" d="M290.6,406.7c0.6,6.5,0.6,13.1,0.1,19.6C290.5,419.7,290.6,413.2,290.6,406.7z"/>
</g>
<g>
	<path class="st0" d="M643.2,408.9c-1.2,0.1-1.8-1.6-0.5-2C643.6,407.4,643.8,408.1,643.2,408.9z"/>
</g>
<g>
	<path class="st0" d="M657.9,407.1l0.3,0.3c0.1,1.4-2.2,1.4-2.6,0.4l0-0.4C656.3,407.2,657.1,407.1,657.9,407.1z"/>
</g>
<g>
	<path class="st0" d="M284.1,408c0.7,5.9,0.3,11.9,0.3,17.9l0,0.5C284,420.3,283.7,414.1,284.1,408z"/>
</g>
<g>
	<path class="st0" d="M275.7,411.1c-0.4-0.8-0.3-1.5,0.3-2.1c0.1,0.5,0.2,1.4,0.2,1.8L275.7,411.1z"/>
</g>
<g>
	<path class="st0" d="M366.3,409.5c1.3-0.7,2,2.2,0.5,2.1C366.4,411,366.3,410.3,366.3,409.5z"/>
	<path class="st0" d="M596.1,409.5c1.3-0.7,2,2.2,0.5,2.1C596.2,411,596.1,410.3,596.1,409.5z"/>
</g>
<g>
	<path class="st0" d="M269.2,409.5c0.5,5.4,0.4,10.9,0.4,16.3v0.5C269.2,420.8,269.2,415.1,269.2,409.5z"/>
</g>
<g>
	<path class="st0" d="M373.2,409.9c1.2,0.5,1.3,1.2,0.3,2.1C373.1,411.3,373,410.6,373.2,409.9z"/>
	<path class="st0" d="M603,409.9c1.2,0.5,1.3,1.2,0.3,2.1C602.8,411.3,602.8,410.6,603,409.9z"/>
</g>
<g>
	<path class="st0" d="M295.4,410.2l0,0.5c-0.1,1.9-0.1,3.9-0.1,5.9C295.1,414.5,295.2,412.4,295.4,410.2z"/>
	<path class="st0" d="M321.1,410.8l0-0.5c0.1,2.1,0.1,4.2,0,6.3C321.1,414.6,321.1,412.7,321.1,410.8z"/>
</g>
<g>
	<path class="st0" d="M350.7,413.4c-1.3-0.3-1.1-2.7,0.3-2.6C351.1,411.7,351,412.5,350.7,413.4z"/>
	<path class="st0" d="M580.5,413.4c-1.3-0.3-1.1-2.7,0.3-2.6C580.9,411.7,580.8,412.5,580.5,413.4z"/>
	<path class="st0" d="M368.5,418.1c0.9-0.7,1.8-0.6,2.6,0.4l0,0.4C370.2,418.9,369.2,418.8,368.5,418.1z"/>
	<path class="st0" d="M598.3,418.1c0.9-0.7,1.8-0.6,2.6,0.4l0,0.4C600,418.9,599,418.8,598.3,418.1z"/>
</g>
<g>
	<path class="st0" d="M615.2,416.6c-0.1-2.1-0.1-4.1,0-6.2C615.1,412.4,615.1,414.5,615.2,416.6z"/>
	<path class="st0" d="M350.7,415c0.2,0.8,0.4,1.7,0.3,2.6C349.6,417.7,349.5,415.3,350.7,415z"/>
	<path class="st0" d="M580.5,415c0.2,0.8,0.4,1.7,0.3,2.6C579.4,417.7,579.3,415.3,580.5,415z"/>
	<path class="st0" d="M357.6,418.4c1.3,1.1,2.6,2.3,3.8,3.5C360,420.9,358.7,419.6,357.6,418.4z"/>
	<path class="st0" d="M587.4,418.4c1.3,1.1,2.6,2.3,3.8,3.5C589.8,420.9,588.5,419.6,587.4,418.4z"/>
</g>
<g>
	<path class="st0" d="M260.4,426.3c-0.1-5.1,0.2-10.2,0.6-15.2C260.9,416.2,260.9,421.2,260.4,426.3z"/>
</g>
<g>
	<path class="st0" d="M275.7,411.1l0.5-0.3c0.1,5.1,0.2,10.3-0.2,15.5C275.8,421.2,275.8,416.2,275.7,411.1z"/>
</g>
<g>
	<path class="st0" d="M479.6,416c0.1-1.4,0.2-2.8,0.4-4.1C481.5,412.5,481.3,415.7,479.6,416z"/>
</g>
<g>
	<path class="st0" d="M539.3,410.8c0.9,0.9,1.7,1.8,2.6,2.8C540.3,414.6,538.2,412.3,539.3,410.8z"/>
</g>
<g>
	<path class="st0" d="M632.5,411.8c1.6-0.1,1.7,3.4,0.1,3.3C632.6,414,632.5,412.9,632.5,411.8z"/>
</g>
<g>
	<path class="st0" d="M655.4,412.5c1.5-1,3.5,1.5,2.5,2.9C657,414.4,656.2,413.4,655.4,412.5z"/>
</g>
<g>
	<path class="st0" d="M400.1,413.5c0.4,0.6,0.6,1.3,0.5,2C399.3,415.2,399.1,414.5,400.1,413.5z"/>
</g>
<g>
	<path class="st0" d="M465.2,413.8c0.2,1,0.3,2,0.4,3C464.1,417,463.9,414.2,465.2,413.8z"/>
</g>
<g>
	<path class="st0" d="M357.1,417.8c-0.9-0.5-0.5-2,0.6-1.7C357.5,416.6,357.2,417.4,357.1,417.8z"/>
	<path class="st0" d="M586.9,417.8c-0.9-0.5-0.5-2,0.6-1.7C587.3,416.6,587,417.4,586.9,417.8z"/>
</g>
<g>
	<path class="st0" d="M553,417.5c0.9,0.7,2,3.2,0.4,3.4C552.2,420.3,551.9,418.1,553,417.5z"/>
</g>
<g>
	<path class="st0" d="M371.1,418.5c0.5-1,2.7-0.9,2.7,0.4l-0.3,0.3c-0.8-0.1-1.6-0.1-2.4-0.2L371.1,418.5z"/>
	<path class="st0" d="M600.9,418.5c0.5-1,2.7-0.9,2.7,0.4l-0.3,0.3c-0.8-0.1-1.6-0.1-2.4-0.2L600.9,418.5z"/>
</g>
<g>
	<path class="st0" d="M540.2,418.6c0.7-1.1,1.6-1.2,2.6-0.5c-0.7,0.7-1.6,0.8-2.6,0.9L540.2,418.6z"/>
	<path class="st0" d="M575.2,426.1c0.7-0.3,1.4-0.3,2.1,0.1C576.5,427.2,575.8,427.2,575.2,426.1z"/>
</g>
<g>
	<path class="st0" d="M466.9,419.4c0.7,0.6,0.8,1.2,0.4,1.9C466.1,420.9,466,420.2,466.9,419.4z"/>
</g>
<g>
	<path class="st0" d="M642.9,419.6c1.1-0.4,1.6,0.1,1.5,1.3C643.5,420.9,643,420.5,642.9,419.6z"/>
	<path class="st0" d="M567.9,424.4c0.7,0.3,1.1,0.9,1.2,1.7C567.8,426.1,567.4,425.6,567.9,424.4z"/>
</g>
<g>
	<path class="st0" d="M577,420.4c0.8,2,0.9,4.1,1.2,6.3c-0.3-1.8-0.7-3.6-1-5.4L577,420.4z"/>
</g>
<g>
	<path class="st0" d="M460.9,422.2c0.9,0.8,1.8,1.7,2.6,2.6C462.1,425.9,459.8,423.6,460.9,422.2z"/>
</g>
<g>
	<path class="st0" d="M539.2,422.3c0.8,0.9,1.6,1.7,2.4,2.6C540.1,426.1,537.9,423.7,539.2,422.3z"/>
</g>
<g>
	<path class="st0" d="M637.5,422.3c1,0.7,1.8,1.6,2.6,2.5C638.7,425.9,636.4,423.7,637.5,422.3z"/>
</g>
<g>
	<path class="st0" d="M614.9,422.9c0.6,0.6,1.2,1.3,1.9,2c-0.5,3.7-1,7.3-1.7,10.9C615,431.5,614.9,427.2,614.9,422.9z"/>
</g>
<g>
	<path class="st0" d="M364.4,426.5c0.6-0.4,1.3-0.6,2-0.5C366.1,427.2,365.4,427.4,364.4,426.5z"/>
	<path class="st0" d="M594.2,426.5c0.6-0.4,1.3-0.6,2-0.5C595.8,427.2,595.2,427.4,594.2,426.5z"/>
</g>
<g>
	<path class="st0" d="M405.9,427.4c0.6,0.3,1.1,0.9,1.3,1.6C405.9,429.2,405.4,428.7,405.9,427.4z"/>
</g>
<g>
	<path class="st0" d="M499.5,433.9c0.6-0.7,1.4-1.3,2.2-1.8C502.7,433.3,500.6,435,499.5,433.9z"/>
</g>
<g>
	<path class="st0" d="M430.7,439.6c16.9-0.4,33.7-0.3,50.6-0.1C464.4,440.4,447.5,440.4,430.7,439.6z"/>
</g>
<g>
	<path class="st0" d="M429.2,441c17.2-0.3,34.4-0.2,51.7-0.2l-0.4,0.3C463.5,442,446.3,441.8,429.2,441z"/>
</g>
<g>
	<path class="st0" d="M480.9,440.8c0.7,0,1.4,0,2.2,0.1c0,1.3-2.3,1.5-2.5,0.2L480.9,440.8z"/>
</g>
<g>
	<path class="st0" d="M430.7,442.6c16.9-0.4,33.7-0.3,50.6-0.1C464.4,443.3,447.5,443.4,430.7,442.6z"/>
</g>
<g>
	<path class="st0" d="M240.8,457.8c0.7-0.8,1.5-0.9,2.4-0.3C242.4,458.2,241.6,458.3,240.8,457.8z"/>
</g>
<g>
	<path class="st0" d="M668.7,457.6c0.9-0.7,1.7-0.6,2.4,0.2C670.3,458.3,669.5,458.2,668.7,457.6z"/>
</g>
<g>
	<path class="st0" d="M264,457.7c0.5,0.1,1.5,0.2,2,0.3l0.1,0.6C265,458.9,264.3,458.6,264,457.7z"/>
</g>
<g>
	<path class="st0" d="M266,458c0.9-0.4,1.6-0.3,2.3,0.5c-0.6,0-1.7,0.1-2.2,0.1L266,458z"/>
</g>
<g>
	<path class="st0" d="M333.2,458c0.9-0.8,2.1-0.5,3.1,0C335.4,458.6,334,459,333.2,458z"/>
</g>
<g>
	<path class="st0" d="M498.5,458c1.5,0,3,0,4.5-0.1c0.4,0.5,0.8,1.1,1.2,1.6c-0.9-0.3-1.9-0.5-2.8-0.7
		C500.4,458.6,499.5,458.3,498.5,458z"/>
</g>
<g>
	<path class="st0" d="M333.2,459.5c0.9-0.8,2.1-0.5,3.1,0C335.4,460.1,334,460.5,333.2,459.5z"/>
</g>
<g>
	<path class="st0" d="M271.7,460.4c0.9-0.5,1.7-0.3,2.3,0.5C273.1,461.4,272.3,461.3,271.7,460.4z"/>
</g>
<g>
	<path class="st0" d="M274.4,461.3c2.7,2.7,5.4,5.5,8.2,8.2C279.6,467,276.9,464.1,274.4,461.3z"/>
</g>
<g>
	<g>
		<path class="st0" d="M463.5,474.2c2-1.7,4.6-4.9,7.5-3.3c5.2,3.9,9.5,8.7,14.1,13.3c1.6,1.7,3.5,4,2.3,6.4c-1.6,3.5-6.2,3-9.3,3.9
			c-2.2,10.1-8.7,19.9-18.9,23.4c-9.8,3.6-21.5,1-28.8-6.5c-2.1-3.3,0.6-7.9,4.3-8.5c4.1,0.5,7.6,3.4,11.8,3.5
			c7.3,1.3,13.1-5.3,14.3-11.9c-3.6-0.4-10.5-1.2-9.9-6.5C453.9,482.7,459.2,478.7,463.5,474.2z M453.5,488.5l0.6,0.1
			c-0.4,1.1-0.1,1.6,1.1,1.5c2.5,0.1,5,0.1,7.5,0.3c0,2.3,0,4.5,0,6.8c-0.3,2-1.1,4-2.2,5.7c-1.3,1.2-2.6,2.4-3.8,3.7
			c-2.2,1.2-4.6,1.9-6.9,2.8c0.3-1.4-2.4-1-1.7,0.2c-0.7,0-2.1,0-2.8,0c0.7-1.2-2-1.7-1.7-0.3c-3.6-1.3-7-2.8-10.6-4
			c-0.3,1.4-0.7,2.9-1,4.4c0.9,0.3,1.8,0.7,2.7,1c-0.2,1.3,0.3,1.7,1.6,1.3c2.2,2.8,6.1,3.9,9.5,4.1c0.4,1.2,1.1,1.3,2,0.4
			c2,0.4,4.1,0.1,6.2-0.1c4.2-0.6,8.2-2.8,11.4-5.6c1.8-1.3,3.4-2.8,4.6-4.5c3-3.1,3.4-7.6,4.3-11.6c0.8-4.7,6.1-3.4,9.3-4.7l1-0.1
			c-4.1-6.8-10.1-12-16.1-17C463.4,478,458.2,483.1,453.5,488.5z"/>
	</g>
</g>
<g>
	<path class="st0" d="M290.3,472.8c6.8,0.1,13.6,0.2,20.4,0.2C303.9,473.4,297,473.2,290.3,472.8z"/>
</g>
<g>
	<path class="st0" d="M511.6,473.8c0.9,12.9,0.8,25.9,0,38.8C511.4,499.7,511.4,486.8,511.6,473.8z"/>
</g>
<g>
	<path class="st0" d="M454.1,488.6c0.9,0.1,1.3,0.6,1.1,1.5C454,490.2,453.7,489.7,454.1,488.6z"/>
</g>
<g>
	<path class="st0" d="M462.7,490.4l0.9,0c-0.3,2.3-0.6,4.5-0.9,6.8C462.7,494.9,462.7,492.6,462.7,490.4z"/>
</g>
<g>
	<path class="st0" d="M475.1,490.7c2.8-0.3,5.7-0.5,8.5-0.6c-3.2,1.3-8.5-0.1-9.3,4.7C474.4,493.7,474.9,491.7,475.1,490.7z"/>
</g>
<g>
	<path class="st0" d="M456.7,506.6c1.2-1.3,2.5-2.5,3.8-3.7C459.5,504.4,458.2,505.6,456.7,506.6z"/>
</g>
<g>
	<path class="st0" d="M465.3,510.9c1.5-1.5,3.1-3,4.6-4.5C468.7,508.1,467.1,509.6,465.3,510.9z"/>
</g>
<g>
	<path class="st0" d="M178.7,507.4l0,0.6l0,0.6c0.1,1.2,0.3,3.8,0.3,5c0-0.3-0.1-0.8-0.1-1C179,511.2,178.8,508.7,178.7,507.4z"/>
</g>
<g>
	<path class="st0" d="M443.6,509.4c-0.3-1.4,2.4-1,1.7,0.3C444.9,509.6,444.1,509.5,443.6,509.4z"/>
</g>
<g>
	<path class="st0" d="M448.1,509.7c-0.7-1.3,2-1.6,1.7-0.2C449.4,509.5,448.6,509.6,448.1,509.7z"/>
</g>
<g>
	<path class="st0" d="M434.7,510.8c0.7,0.2,1.3,0.6,1.6,1.3C435,512.5,434.5,512,434.7,510.8z"/>
</g>
<g>
	<path class="st0" d="M179.2,514.2c1,0.7,1.2,1.5,0.5,2.4C179,515.8,178.9,515,179.2,514.2z"/>
</g>
<g>
	<path class="st0" d="M445.8,516.2c0.4,0,1.2,0,1.7,0l0.3,0.4C446.9,517.5,446.3,517.4,445.8,516.2z"/>
</g>
<g>
	<path class="st0" d="M447.5,516.2c2.1,0.1,4.3,0.2,6.5,0.3c-2,0.2-4.1,0.5-6.2,0.1L447.5,516.2z"/>
</g>
<g>
	<path class="st0" d="M193.6,529.5c0.5-0.2,1.4-0.6,1.9-0.8l0.4,0.4C195.2,529.8,194.4,529.9,193.6,529.5z"/>
</g>
<g>
	<path class="st0" d="M195.5,528.7c7.1,0.1,14.2,0.3,21.3,0.7c-7-0.2-13.9-0.2-20.9-0.3L195.5,528.7z"/>
</g>
<g>
	<path class="st0" d="M288.8,529.3c13.6-1,27.2-0.6,40.8-0.6c55.8,0,111.6,0,167.4,0l-0.4,0.4C427.3,529.8,358.1,529.4,288.8,529.3z
		"/>
</g>
<g>
	<path class="st0" d="M497,528.8c0.5,0.2,1.4,0.5,1.9,0.7c-0.8,0.5-1.6,0.4-2.3-0.3L497,528.8z"/>
</g>
<g>
	<path class="st0" d="M218.8,529.6c0.8-0.6,1.6-0.6,2.4,0C220.4,530.3,219.6,530.3,218.8,529.6z"/>
</g>
<g>
	<path class="st0" d="M263.8,544.4c0.6-0.9,1.4-1.1,2.4-0.7C265.6,544.6,264.8,544.8,263.8,544.4z"/>
</g>
<g>
	<path class="st0" d="M243,544.4c6.5,0.2,13.1,0,19.6,0.1C256,544.7,249.5,544.8,243,544.4z"/>
</g>
</svg>
